<?xml version="1.0" encoding="utf-8"?>
<!-- Generator: Adobe Illustrator 24.0.1, SVG Export Plug-In . SVG Version: 6.00 Build 0)  -->
<svg version="1.1" id="Layer_1" xmlns="http://www.w3.org/2000/svg" xmlns:xlink="http://www.w3.org/1999/xlink" x="0px" y="0px"
	 viewBox="0 0 800 800" style="enable-background:new 0 0 800 800;" xml:space="preserve">
<style type="text/css">
	.st0{fill:#2B1204;}
	.st1{fill:#FFFFFF;}
	.st2{fill-rule:evenodd;clip-rule:evenodd;fill:#ED1C24;}
</style>
<g>
	<circle class="st0" cx="400" cy="400" r="390"/>
	<g>
		<path class="st1" d="M584.37,359.71c2.31,0,4.46,0,6.61,0c20.53,0,41.05-0.03,61.58,0.01c22.05,0.05,34.96,12.05,36.12,34.15
			c1.05,20.04-2.35,39.67-6.34,59.22c-7.6,37.28-17.04,74-32.58,108.89c-2.77,6.22-6.25,12.14-9.61,18.08
			c-11.24,19.9-31.04,27.02-51.01,33.67c-7.03,2.34-14.33,3.96-21.61,5.43c-3.9,0.78-5.67,2.17-6.24,6.43
			c-2.09,15.49-6.89,30.12-15.56,43.29c-15.51,23.55-38.32,36.51-65,42.37c-16.98,3.73-34.5,5.93-51.88,6.8
			c-34.56,1.72-69.22,2.15-103.34-5.36c-19.67-4.33-37.86-11.96-53.36-25.28c-19.44-16.7-30.1-38.29-32.81-63.23
			c-4.05-37.18-6.76-74.5-9.91-111.78c-3.54-41.89-6.94-83.79-10.38-125.69c-1.6-19.45-3.34-38.88-4.68-58.35
			c-1.43-20.73,11.74-34.7,32.41-34.71c101.82-0.02,203.65-0.01,305.47-0.01c21.14,0,32.53,10.4,33.48,31.7
			c0.42,9.39-0.87,18.86-1.35,28.29C584.3,355.4,584.37,357.18,584.37,359.71z M567.48,557.92c16.89-2.69,22.61-6.91,28.86-21.3
			c11-25.32,18.42-51.77,24.37-78.65c2.81-12.67,4.65-20.29-2.72-28.01c-11.81-12.37-22.64-10.59-39.11-10.59
			C575.07,465.82,571.28,511.8,567.48,557.92z"/>
		<path class="st2" d="M438.65,125.14c-0.85-24.91-18.95-44.23-44.12-44.23c-22.1,0-33.15,14.73-33.15,14.73
			s-11.05-14.73-33.15-14.73c-25.17,0-43.27,19.33-44.12,44.23c-0.01-0.04-0.08,1.8-0.08,1.81c0,29.47,24.08,55.74,46.04,75.51
			c13.55,12.2,31.3,20.25,31.31,20.26h0c0.01-0.01,17.76-8.05,31.31-20.26c21.96-19.78,46.04-46.04,46.04-75.51
			C438.73,126.94,438.66,125.11,438.65,125.14z"/>
		<path class="st2" d="M516.04,209.39c-0.42-12.45-9.47-22.12-22.06-22.12c-11.05,0-16.58,7.37-16.58,7.37s-5.53-7.37-16.58-7.37
			c-12.59,0-21.64,9.66-22.06,22.12c-0.01-0.02-0.04,0.9-0.04,0.91c0,14.73,12.04,27.87,23.02,37.76
			c6.78,6.1,15.65,10.13,15.65,10.13h0c0.01,0,8.88-4.03,15.65-10.13c10.98-9.89,23.02-23.02,23.02-37.76
			C516.08,210.29,516.05,209.37,516.04,209.39z"/>
	</g>
</g>
</svg>
