<?xml version="1.0" encoding="utf-8"?>
<!-- Generator: Adobe Illustrator 24.0.1, SVG Export Plug-In . SVG Version: 6.00 Build 0)  -->
<svg version="1.1" id="Layer_1" xmlns="http://www.w3.org/2000/svg" xmlns:xlink="http://www.w3.org/1999/xlink" x="0px" y="0px"
	 viewBox="0 0 390 520" style="enable-background:new 0 0 390 520;" xml:space="preserve">
<style type="text/css">
	.st0{fill:#2B1204;}
	.st1{fill-rule:evenodd;clip-rule:evenodd;fill:#ED1C24;}
</style>
<g>
	<path class="st0" d="M301.24,227.55c1.85,0,3.57,0,5.29,0c16.43,0,32.87-0.03,49.3,0.01c17.65,0.04,27.99,9.65,28.92,27.34
		c0.84,16.04-1.88,31.77-5.07,47.42c-6.08,29.85-13.64,59.25-26.09,87.18c-2.22,4.98-5.01,9.72-7.69,14.48
		c-9,15.93-24.86,21.64-40.84,26.96c-5.63,1.87-11.47,3.17-17.3,4.34c-3.12,0.63-4.54,1.74-5,5.14
		c-1.67,12.4-5.51,24.12-12.46,34.66c-12.42,18.86-30.68,29.23-52.04,33.93c-13.6,2.99-27.62,4.75-41.54,5.44
		c-27.67,1.38-55.42,1.72-82.74-4.29c-15.75-3.47-30.32-9.58-42.73-20.24c-15.56-13.37-24.1-30.66-26.27-50.63
		c-3.24-29.77-5.41-59.65-7.93-89.5c-2.83-33.54-5.56-67.09-8.31-100.63c-1.28-15.57-2.67-31.13-3.75-46.72
		c-1.15-16.6,9.4-27.79,25.95-27.79c81.53-0.02,163.06-0.01,244.58-0.01c16.93,0,26.05,8.33,26.81,25.38
		c0.33,7.52-0.7,15.1-1.08,22.65C301.18,224.1,301.24,225.52,301.24,227.55z M287.71,386.25c13.52-2.15,18.1-5.53,23.11-17.05
		c8.81-20.27,14.75-41.45,19.52-62.97c2.25-10.15,3.72-16.24-2.18-22.43c-9.45-9.9-18.12-8.48-31.31-8.48
		C293.79,312.5,290.75,349.32,287.71,386.25z"/>
	<path class="st1" d="M184.56,39.74c-0.68-19.94-15.17-35.42-35.33-35.42c-17.7,0-26.54,11.8-26.54,11.8s-8.85-11.8-26.54-11.8
		c-20.15,0-34.65,15.47-35.33,35.42c-0.01-0.03-0.06,1.44-0.06,1.45c0,23.59,19.28,44.63,36.87,60.46
		c10.85,9.77,25.06,16.22,25.07,16.22h0c0.01,0,14.22-6.45,25.07-16.22c17.58-15.83,36.87-36.87,36.87-60.46
		C184.62,41.18,184.57,39.71,184.56,39.74z"/>
	<path class="st1" d="M246.53,107.19c-0.34-9.97-7.59-17.71-17.66-17.71c-8.85,0-13.27,5.9-13.27,5.9s-4.42-5.9-13.27-5.9
		c-10.08,0-17.32,7.74-17.66,17.71c-0.01-0.01-0.03,0.72-0.03,0.72c0,11.8,9.64,22.31,18.43,30.23c5.43,4.89,12.53,8.11,12.53,8.11
		h0c0.01,0,7.11-3.22,12.53-8.11c8.79-7.92,18.43-18.43,18.43-30.23C246.56,107.91,246.53,107.18,246.53,107.19z"/>
</g>
</svg>
