<?xml version="1.0" encoding="utf-8"?>
<!-- Generator: Adobe Illustrator 24.0.1, SVG Export Plug-In . SVG Version: 6.00 Build 0)  -->
<svg version="1.1" id="Layer_1" xmlns="http://www.w3.org/2000/svg" xmlns:xlink="http://www.w3.org/1999/xlink" x="0px" y="0px"
	 viewBox="0 0 610 130" style="enable-background:new 0 0 610 130;" xml:space="preserve">
<style type="text/css">
	.st0{fill:#2B1204;}
	.st1{fill-rule:evenodd;clip-rule:evenodd;fill:#ED1C24;}
</style>
<g>
	<g>
		<path class="st0" d="M180.91,57.6c-0.51-0.34-1.3-0.5-2.37-0.5c-0.71,0-1.29,0.04-1.72,0.12c-0.44,0.08-0.79,0.2-1.07,0.36
			c-0.28,0.16-0.55,0.4-0.83,0.71l-13.86,19.35l-13.8-19.28c-0.24-0.28-0.48-0.51-0.71-0.68c-0.24-0.18-0.56-0.32-0.98-0.42
			c-0.41-0.1-1.04-0.15-1.87-0.15c-1.11,0-1.92,0.17-2.43,0.5c-0.51,0.34-0.84,0.77-0.98,1.3c-0.14,0.54-0.21,1.12-0.21,1.75V94.9
			c0,0.67,0.07,1.29,0.21,1.84c0.14,0.56,0.46,0.99,0.98,1.31c0.51,0.31,1.28,0.47,2.31,0.47c1.11,0,1.92-0.16,2.43-0.47
			c0.51-0.32,0.84-0.75,0.98-1.31c0.14-0.55,0.21-1.13,0.21-1.72V69.44l10.74,15.55c0.2,0.24,0.4,0.48,0.62,0.71
			c0.22,0.24,0.53,0.45,0.92,0.65c0.39,0.2,0.91,0.3,1.54,0.3c0.67,0,1.21-0.1,1.6-0.3c0.4-0.2,0.72-0.43,0.95-0.68
			c0.24-0.26,0.41-0.46,0.53-0.63l10.8-15.61V94.9c0,0.63,0.07,1.23,0.21,1.78c0.14,0.55,0.46,1,0.98,1.33
			c0.51,0.34,1.31,0.5,2.37,0.5c1.11,0,1.92-0.16,2.43-0.47c0.51-0.32,0.84-0.75,0.98-1.31c0.14-0.55,0.21-1.13,0.21-1.72V60.77
			c0-0.67-0.07-1.28-0.21-1.84C181.75,58.38,181.42,57.93,180.91,57.6z"/>
		<path class="st0" d="M214.11,84.69c1.01-0.95,1.51-2.47,1.51-4.57c0-1.23-0.29-2.5-0.86-3.8c-0.57-1.3-1.41-2.5-2.49-3.59
			s-2.44-1.97-4.07-2.64c-1.62-0.67-3.5-1.01-5.64-1.01c-3.01,0-5.67,0.63-7.98,1.9c-2.32,1.27-4.13,3.01-5.43,5.22
			c-1.3,2.22-1.96,4.75-1.96,7.6c0,1.94,0.33,3.81,0.98,5.61c0.65,1.8,1.62,3.43,2.91,4.87c1.29,1.44,2.89,2.58,4.81,3.41
			c1.92,0.83,4.16,1.25,6.74,1.25c2.33,0,4.36-0.23,6.08-0.68c1.72-0.45,3.06-1.03,4.01-1.72c0.95-0.69,1.42-1.43,1.42-2.22
			c0-0.32-0.05-0.64-0.15-0.98c-0.1-0.34-0.27-0.7-0.5-1.1c-0.28-0.59-0.64-1.01-1.07-1.25c-0.44-0.24-0.87-0.34-1.3-0.3
			c-0.32,0.04-0.65,0.14-1.01,0.3c-0.35,0.16-0.74,0.34-1.15,0.54c-0.42,0.2-0.9,0.39-1.46,0.56c-0.55,0.18-1.22,0.33-1.99,0.45
			s-1.65,0.18-2.64,0.18c-1.3,0-2.58-0.27-3.83-0.8c-1.25-0.54-2.28-1.3-3.09-2.29c-0.81-0.99-1.24-2.16-1.27-3.5h15.67
			C211.85,86.11,213.1,85.64,214.11,84.69z M208.39,81.57c-0.36,0.22-0.87,0.33-1.54,0.33h-12.16c0-1.23,0.34-2.33,1.04-3.32
			c0.69-0.99,1.63-1.77,2.82-2.35c1.19-0.57,2.51-0.86,3.98-0.86c1.27,0,2.37,0.21,3.32,0.62c0.95,0.41,1.7,0.99,2.26,1.72
			c0.55,0.73,0.83,1.56,0.83,2.46C208.92,80.89,208.74,81.36,208.39,81.57z"/>
		<path class="st0" d="M261.35,60.65c-1.33-1.19-2.82-2.08-4.48-2.67c-1.66-0.59-3.36-0.89-5.11-0.89h-12.58
			c-1.11,0-1.92,0.17-2.43,0.5c-0.51,0.34-0.84,0.77-0.98,1.3c-0.14,0.54-0.21,1.12-0.21,1.75V94.9c0,0.63,0.06,1.24,0.18,1.81
			c0.12,0.58,0.43,1.02,0.95,1.34c0.51,0.31,1.33,0.47,2.43,0.47c1.15,0,1.97-0.16,2.46-0.47c0.49-0.32,0.81-0.75,0.95-1.31
			c0.14-0.55,0.21-1.14,0.21-1.78V85.1h8.96c1.78,0,3.49-0.3,5.13-0.89c1.64-0.59,3.14-1.48,4.48-2.67c1.34-1.19,2.4-2.64,3.17-4.36
			c0.77-1.72,1.16-3.73,1.16-6.02c0-2.33-0.39-4.37-1.16-6.11C263.73,63.3,262.68,61.84,261.35,60.65z M257.58,74.87
			c-0.63,1.01-1.46,1.76-2.46,2.25c-1.01,0.5-2.13,0.74-3.35,0.74h-9.02V64.28h8.96c1.38,0,2.58,0.28,3.59,0.83
			c1.01,0.55,1.8,1.33,2.37,2.35c0.57,1.01,0.86,2.21,0.86,3.59C258.54,72.58,258.22,73.86,257.58,74.87z"/>
		<path class="st0" d="M297.53,69.82c-0.48-0.34-1.27-0.51-2.37-0.51c-1.19,0-2.06,0.23-2.61,0.68c-0.55,0.46-0.83,1.12-0.83,1.99
			l0.35,1.72c-0.51-0.71-1.17-1.39-1.96-2.05c-0.79-0.65-1.75-1.19-2.88-1.63c-1.13-0.44-2.51-0.65-4.13-0.65
			c-1.82,0-3.55,0.39-5.19,1.16c-1.64,0.77-3.1,1.83-4.36,3.17c-1.27,1.34-2.26,2.88-3,4.6c-0.73,1.72-1.1,3.55-1.1,5.49
			c0,2.02,0.36,3.91,1.1,5.67c0.73,1.76,1.72,3.32,2.97,4.69c1.25,1.37,2.69,2.43,4.33,3.21c1.64,0.77,3.39,1.15,5.25,1.15
			c1.74,0,3.22-0.26,4.45-0.8c1.23-0.53,2.21-1.15,2.97-1.84c0.75-0.69,1.28-1.3,1.6-1.81l-0.41,1.96c0,0.75,0.28,1.35,0.83,1.78
			c0.55,0.44,1.41,0.65,2.55,0.65c1.11,0,1.91-0.16,2.4-0.48c0.49-0.31,0.8-0.75,0.92-1.3c0.12-0.55,0.18-1.17,0.18-1.84V73.12
			c0-0.71-0.06-1.36-0.18-1.93C298.3,70.61,298,70.16,297.53,69.82z M290.37,87.8c-0.65,1.17-1.51,2.09-2.58,2.76
			s-2.27,1.01-3.62,1.01c-1.47,0-2.78-0.34-3.95-1.01c-1.17-0.67-2.09-1.58-2.76-2.73c-0.67-1.14-1.01-2.43-1.01-3.85
			c0-1.47,0.33-2.78,0.98-3.95c0.65-1.17,1.55-2.1,2.7-2.79c1.15-0.69,2.45-1.04,3.91-1.04c1.35,0,2.56,0.33,3.65,0.98
			c1.09,0.65,1.97,1.55,2.64,2.7c0.67,1.15,1.01,2.49,1.01,4.04C291.35,85.34,291.03,86.64,290.37,87.8z"/>
		<path class="st0" d="M330.28,69.96c-0.47-0.3-1.24-0.44-2.31-0.44c-1.15,0-2,0.19-2.55,0.56s-0.87,1.02-0.95,1.93l0,1.54
			c-0.86-1.23-1.94-2.2-3.24-2.87c-1.33-0.69-2.88-1.04-4.66-1.04c-1.82,0-3.53,0.37-5.13,1.1c-1.6,0.73-3.01,1.75-4.22,3.06
			c-1.2,1.3-2.16,2.81-2.85,4.51c-0.69,1.7-1.04,3.54-1.04,5.52c0,2.02,0.35,3.89,1.04,5.61c0.69,1.72,1.64,3.24,2.85,4.54
			c1.21,1.3,2.61,2.31,4.22,3.02c1.6,0.72,3.33,1.07,5.19,1.07c2.37,0,4.33-0.57,5.88-1.72c0.76-0.57,1.43-1.26,2.01-2.07l0.01,2.31
			c0,1.19-0.18,2.26-0.53,3.21c-0.36,0.95-0.84,1.77-1.46,2.46c-0.61,0.69-1.36,1.22-2.22,1.57c-0.87,0.36-1.82,0.54-2.85,0.54
			c-1.23,0-2.23-0.16-3.03-0.48c-0.79-0.32-1.46-0.67-2.02-1.07c-0.55-0.4-1.04-0.75-1.46-1.07c-0.41-0.31-0.84-0.47-1.28-0.47
			c-0.51,0-0.92,0.12-1.22,0.35c-0.3,0.24-0.68,0.59-1.16,1.07c-0.35,0.39-0.62,0.79-0.8,1.19c-0.18,0.39-0.26,0.87-0.26,1.42
			s0.3,1.15,0.92,1.78c0.61,0.63,1.44,1.23,2.49,1.78c1.05,0.55,2.23,1,3.53,1.34c1.3,0.34,2.67,0.5,4.09,0.5
			c1.9,0,3.69-0.31,5.37-0.92c1.68-0.61,3.17-1.51,4.48-2.67c1.3-1.17,2.33-2.6,3.09-4.3c0.75-1.7,1.13-3.64,1.13-5.82V72.96
			c0-0.63-0.06-1.22-0.18-1.75C331.06,70.67,330.76,70.25,330.28,69.96z M323.37,87.67c-0.61,1.15-1.45,2.05-2.5,2.7
			c-1.05,0.65-2.25,0.98-3.59,0.98s-2.54-0.33-3.59-0.98c-1.05-0.65-1.88-1.54-2.49-2.67c-0.61-1.13-0.92-2.42-0.92-3.89
			c0-1.46,0.3-2.75,0.89-3.86c0.59-1.1,1.42-1.99,2.46-2.64c1.05-0.65,2.25-0.98,3.59-0.98c1.35,0,2.55,0.32,3.62,0.95
			c1.07,0.64,1.91,1.52,2.52,2.64c0.61,1.13,0.92,2.42,0.92,3.89C324.29,85.24,323.98,86.53,323.37,87.67z"/>
		<path class="st0" d="M364.47,69.82c-0.48-0.34-1.27-0.51-2.37-0.51c-1.19,0-2.06,0.23-2.61,0.68c-0.55,0.46-0.83,1.12-0.83,1.99
			l0.35,1.72c-0.51-0.71-1.17-1.39-1.96-2.05c-0.79-0.65-1.75-1.19-2.88-1.63c-1.13-0.44-2.51-0.65-4.13-0.65
			c-1.82,0-3.55,0.39-5.19,1.16s-3.1,1.83-4.36,3.17c-1.27,1.34-2.26,2.88-3,4.6c-0.73,1.72-1.1,3.55-1.1,5.49
			c0,2.02,0.36,3.91,1.1,5.67c0.73,1.76,1.72,3.32,2.97,4.69c1.25,1.37,2.69,2.43,4.33,3.21c1.64,0.77,3.39,1.15,5.25,1.15
			c1.74,0,3.22-0.26,4.45-0.8c1.23-0.53,2.21-1.15,2.97-1.84c0.75-0.69,1.28-1.3,1.6-1.81l-0.41,1.96c0,0.75,0.28,1.35,0.83,1.78
			c0.55,0.44,1.41,0.65,2.55,0.65c1.11,0,1.91-0.16,2.4-0.48c0.49-0.31,0.8-0.75,0.92-1.3c0.12-0.55,0.18-1.17,0.18-1.84V73.12
			c0-0.71-0.06-1.36-0.18-1.93C365.24,70.61,364.94,70.16,364.47,69.82z M357.32,87.8c-0.65,1.17-1.51,2.09-2.58,2.76
			s-2.27,1.01-3.62,1.01c-1.47,0-2.78-0.34-3.95-1.01c-1.17-0.67-2.09-1.58-2.76-2.73c-0.67-1.14-1.01-2.43-1.01-3.85
			c0-1.47,0.33-2.78,0.98-3.95c0.65-1.17,1.55-2.1,2.7-2.79c1.15-0.69,2.45-1.04,3.91-1.04c1.35,0,2.56,0.33,3.65,0.98
			c1.09,0.65,1.97,1.55,2.64,2.7c0.67,1.15,1.01,2.49,1.01,4.04C358.3,85.34,357.97,86.64,357.32,87.8z"/>
		<path class="st0" d="M411.89,69.79c-0.48-0.31-1.27-0.48-2.37-0.48c-1.11,0-1.92,0.15-2.43,0.45c-0.51,0.3-0.83,0.71-0.95,1.25
			c-0.12,0.53-0.18,1.14-0.18,1.81v11.87c0,1.38-0.28,2.6-0.83,3.65s-1.33,1.86-2.34,2.43c-1.01,0.58-2.23,0.86-3.65,0.86
			c-1.39,0-2.55-0.29-3.5-0.86c-0.95-0.57-1.67-1.37-2.16-2.4c-0.5-1.03-0.74-2.26-0.74-3.68V72.94c0-0.67-0.06-1.28-0.18-1.84
			c-0.12-0.55-0.43-0.99-0.92-1.3c-0.49-0.31-1.32-0.48-2.46-0.48c-1.07,0-1.86,0.16-2.37,0.48c-0.51,0.32-0.83,0.74-0.95,1.28
			c-0.12,0.54-0.18,1.14-0.18,1.81v11.81c0,2.06,0.31,3.94,0.95,5.64s1.52,3.16,2.67,4.39c1.15,1.23,2.48,2.17,4.01,2.82
			c1.52,0.65,3.19,0.98,5.01,0.98c1.11,0,2.12-0.16,3.03-0.47c0.91-0.32,1.71-0.72,2.4-1.22c0.69-0.49,1.28-0.99,1.75-1.48
			c0.48-0.49,0.83-0.92,1.07-1.28l-0.48,1.61c0,0.31,0.03,0.63,0.09,0.95c0.06,0.32,0.2,0.63,0.41,0.92
			c0.22,0.3,0.55,0.53,1.01,0.71c0.45,0.18,1.08,0.26,1.87,0.26c1.11,0,1.91-0.16,2.4-0.47c0.5-0.32,0.81-0.73,0.95-1.25
			s0.21-1.07,0.21-1.66V72.88c0-0.63-0.07-1.22-0.21-1.78C412.67,70.55,412.36,70.11,411.89,69.79z"/>
		<path class="st0" d="M456.48,70.98c-1.56-1.15-3.49-1.72-5.79-1.72c-1.38,0-2.63,0.25-3.74,0.74c-1.11,0.5-2.08,1.17-2.91,2.02
			c-0.83,0.85-1.58,1.79-2.25,2.82c-0.64-1.19-1.38-2.2-2.23-3.02c-0.85-0.83-1.82-1.47-2.91-1.9c-1.09-0.43-2.28-0.65-3.59-0.65
			c-0.95,0-1.86,0.16-2.73,0.48c-0.87,0.31-1.65,0.73-2.35,1.24c-0.69,0.51-1.28,1.03-1.75,1.54c-0.48,0.51-0.81,0.99-1.01,1.42
			l0.54-1.66c0-1.03-0.27-1.78-0.8-2.25c-0.54-0.48-1.38-0.72-2.52-0.72c-1.11,0-1.92,0.16-2.43,0.48
			c-0.51,0.32-0.83,0.73-0.95,1.25s-0.18,1.09-0.18,1.72v22.2c0,0.64,0.06,1.23,0.18,1.78c0.12,0.56,0.43,0.99,0.92,1.31
			c0.5,0.31,1.28,0.47,2.35,0.47c1.15,0,1.97-0.15,2.46-0.44c0.49-0.3,0.81-0.72,0.95-1.28c0.14-0.55,0.21-1.15,0.21-1.78V83.38
			c0-1.39,0.21-2.61,0.65-3.68c0.44-1.07,1.08-1.92,1.93-2.55c0.85-0.63,1.89-0.95,3.11-0.95c1.15,0,2.07,0.29,2.76,0.86
			c0.69,0.57,1.22,1.41,1.57,2.49c0.35,1.09,0.53,2.36,0.53,3.83V94.9c0,0.59,0.05,1.16,0.15,1.69c0.1,0.53,0.38,0.98,0.83,1.33
			c0.45,0.36,1.18,0.55,2.17,0.59c1.07,0.08,1.89-0.03,2.46-0.33c0.57-0.3,0.96-0.73,1.16-1.3c0.2-0.57,0.3-1.2,0.3-1.87V83.44
			c0-1.54,0.24-2.85,0.71-3.91c0.48-1.07,1.14-1.89,1.99-2.46c0.85-0.58,1.87-0.86,3.06-0.86c1.1,0,2.01,0.3,2.7,0.89
			c0.69,0.59,1.22,1.42,1.57,2.49c0.35,1.07,0.53,2.33,0.53,3.8V94.9c0,0.67,0.06,1.28,0.18,1.81c0.12,0.54,0.44,0.97,0.95,1.3
			c0.51,0.34,1.32,0.5,2.43,0.5s1.91-0.16,2.4-0.47c0.5-0.32,0.81-0.74,0.95-1.28c0.14-0.54,0.21-1.14,0.21-1.81V83.44
			c0-2.93-0.4-5.45-1.22-7.57S458.05,72.13,456.48,70.98z"/>
		<path class="st0" d="M492.5,67.51c1.29-1.17,2.74-2.05,4.36-2.64c1.62-0.59,3.29-0.89,4.99-0.89c1.42,0,2.64,0.14,3.65,0.41
			c1.01,0.28,1.82,0.58,2.43,0.92c0.61,0.34,1.04,0.58,1.28,0.74c0.55,0.36,1.02,0.65,1.39,0.89c0.38,0.24,0.78,0.36,1.22,0.36
			c0.48,0,0.95-0.16,1.43-0.48c0.47-0.31,0.95-0.81,1.42-1.48c0.28-0.39,0.49-0.78,0.65-1.15c0.16-0.38,0.21-0.8,0.18-1.28
			c-0.04-0.71-0.35-1.32-0.92-1.81c-0.57-0.49-1.18-0.94-1.81-1.33c-0.32-0.2-0.93-0.54-1.84-1.04c-0.91-0.49-2.1-0.96-3.56-1.39
			c-1.46-0.43-3.2-0.65-5.22-0.65c-1.98,0.04-3.97,0.35-5.97,0.92c-2,0.58-3.9,1.42-5.7,2.52c-1.8,1.1-3.4,2.49-4.81,4.15
			c-1.41,1.66-2.52,3.59-3.35,5.78c-0.83,2.2-1.24,4.66-1.24,7.39c0,2.77,0.41,5.29,1.24,7.57c0.83,2.28,1.95,4.27,3.35,6
			c1.41,1.72,3.02,3.16,4.84,4.33c1.82,1.17,3.72,2.04,5.7,2.61c1.98,0.57,3.94,0.86,5.87,0.86c2.06,0,3.82-0.21,5.28-0.62
			c1.47-0.41,2.64-0.87,3.53-1.37c0.89-0.49,1.49-0.84,1.81-1.04c0.63-0.36,1.24-0.78,1.81-1.28c0.57-0.49,0.88-1.1,0.92-1.81
			c0.04-0.44-0.02-0.85-0.18-1.25c-0.16-0.39-0.38-0.81-0.65-1.25c-0.43-0.71-0.88-1.22-1.33-1.54c-0.45-0.32-0.92-0.48-1.39-0.48
			c-0.44,0-0.85,0.12-1.25,0.36c-0.39,0.24-0.81,0.49-1.24,0.77c-0.36,0.2-0.88,0.49-1.57,0.86c-0.69,0.38-1.52,0.69-2.49,0.95
			c-0.97,0.26-2.13,0.39-3.47,0.39c-1.7,0-3.36-0.3-4.99-0.89c-1.62-0.59-3.07-1.47-4.36-2.64c-1.29-1.17-2.31-2.61-3.06-4.33
			c-0.75-1.72-1.13-3.69-1.13-5.9c0-2.22,0.38-4.19,1.13-5.91C490.2,70.12,491.22,68.68,492.5,67.51z"/>
		<path class="st0" d="M547.55,69.82c-0.48-0.34-1.27-0.51-2.37-0.51c-1.19,0-2.06,0.23-2.61,0.68c-0.55,0.46-0.83,1.12-0.83,1.99
			l0.35,1.72c-0.51-0.71-1.17-1.39-1.96-2.05c-0.79-0.65-1.75-1.19-2.88-1.63c-1.13-0.44-2.51-0.65-4.13-0.65
			c-1.82,0-3.55,0.39-5.19,1.16s-3.1,1.83-4.36,3.17c-1.27,1.34-2.26,2.88-3,4.6c-0.73,1.72-1.1,3.55-1.1,5.49
			c0,2.02,0.36,3.91,1.1,5.67c0.73,1.76,1.72,3.32,2.97,4.69c1.25,1.37,2.69,2.43,4.33,3.21c1.64,0.77,3.39,1.15,5.25,1.15
			c1.74,0,3.22-0.26,4.45-0.8c1.23-0.53,2.21-1.15,2.97-1.84c0.75-0.69,1.28-1.3,1.6-1.81l-0.41,1.96c0,0.75,0.28,1.35,0.83,1.78
			c0.55,0.44,1.41,0.65,2.55,0.65c1.11,0,1.91-0.16,2.4-0.48c0.49-0.31,0.8-0.75,0.92-1.3c0.12-0.55,0.18-1.17,0.18-1.84V73.12
			c0-0.71-0.06-1.36-0.18-1.93C548.32,70.61,548.03,70.16,547.55,69.82z M540.4,87.8c-0.65,1.17-1.51,2.09-2.58,2.76
			s-2.27,1.01-3.62,1.01c-1.47,0-2.78-0.34-3.95-1.01c-1.17-0.67-2.09-1.58-2.76-2.73c-0.67-1.14-1.01-2.43-1.01-3.85
			c0-1.47,0.33-2.78,0.98-3.95c0.65-1.17,1.55-2.1,2.7-2.79c1.15-0.69,2.45-1.04,3.91-1.04c1.35,0,2.56,0.33,3.65,0.98
			c1.09,0.65,1.97,1.55,2.64,2.7c0.67,1.15,1.01,2.49,1.01,4.04C541.38,85.34,541.05,86.64,540.4,87.8z"/>
		<path class="st0" d="M571.68,69.94c-0.53-0.14-1.14-0.21-1.81-0.21l-4.81,0.14v-3.88c0-0.67,0.07-1.23,0.21-1.66
			c0.14-0.44,0.36-0.75,0.65-0.95c0.3-0.2,0.69-0.33,1.19-0.39c0.49-0.06,1.08-0.09,1.75-0.09c0.67,0,1.28-0.06,1.84-0.18
			c0.55-0.12,1-0.44,1.34-0.95c0.34-0.51,0.5-1.3,0.5-2.37c0-1.14-0.17-1.96-0.5-2.43c-0.34-0.48-0.77-0.78-1.3-0.92
			c-0.54-0.14-1.14-0.21-1.81-0.21c-1.98,0-3.66,0.27-5.04,0.8c-1.38,0.54-2.51,1.26-3.38,2.17c-0.87,0.91-1.51,1.99-1.9,3.24
			c-0.4,1.25-0.59,2.6-0.59,4.07v3.82l-2.43-0.02c-0.95,0-1.65,0.27-2.11,0.8c-0.45,0.53-0.68,1.37-0.68,2.52
			c0,1.23,0.19,2.11,0.56,2.64c0.38,0.53,1.06,0.82,2.05,0.86l2.61-0.02v18.24c0,0.64,0.06,1.24,0.18,1.81
			c0.12,0.57,0.43,1.02,0.92,1.33c0.49,0.32,1.28,0.48,2.35,0.48c1.1,0,1.92-0.16,2.43-0.48c0.51-0.31,0.84-0.74,0.98-1.28
			c0.14-0.53,0.21-1.12,0.21-1.75V76.72l4.87,0.07c0.67,0,1.27-0.07,1.78-0.21s0.93-0.46,1.25-0.98c0.31-0.51,0.48-1.28,0.48-2.31
			c0-1.11-0.16-1.91-0.48-2.41C572.63,70.4,572.21,70.08,571.68,69.94z"/>
		<path class="st0" d="M587.22,65.93c0.41,0.36,0.94,0.48,1.57,0.36l9.91-3.15c0.95-0.31,1.55-0.76,1.81-1.33
			c0.26-0.58,0.19-1.39-0.21-2.46c-0.24-0.91-0.56-1.55-0.98-1.93c-0.41-0.38-0.94-0.5-1.57-0.39l-9.97,3.15
			c-0.99,0.32-1.59,0.76-1.81,1.34c-0.22,0.57-0.15,1.41,0.21,2.52C586.46,64.95,586.81,65.58,587.22,65.93z"/>
		<path class="st0" d="M602.81,92.23c-0.28-0.59-0.64-1.01-1.07-1.25c-0.44-0.24-0.87-0.34-1.3-0.3c-0.32,0.04-0.65,0.14-1.01,0.3
			c-0.35,0.16-0.74,0.34-1.15,0.54c-0.42,0.2-0.9,0.39-1.46,0.56c-0.55,0.18-1.22,0.33-1.99,0.45c-0.77,0.12-1.65,0.18-2.64,0.18
			c-1.3,0-2.58-0.27-3.83-0.8c-1.25-0.54-2.28-1.3-3.09-2.29c-0.81-0.99-1.24-2.16-1.27-3.5h15.67c1.5,0,2.76-0.48,3.77-1.42
			c1.01-0.95,1.51-2.47,1.51-4.57c0-1.23-0.29-2.5-0.86-3.8c-0.57-1.3-1.41-2.5-2.49-3.59c-1.09-1.09-2.44-1.97-4.07-2.64
			c-1.62-0.67-3.5-1.01-5.64-1.01c-3.01,0-5.67,0.63-7.98,1.9c-2.32,1.27-4.13,3.01-5.43,5.22c-1.3,2.22-1.96,4.75-1.96,7.6
			c0,1.94,0.33,3.81,0.98,5.61c0.65,1.8,1.62,3.43,2.91,4.87c1.29,1.44,2.89,2.58,4.81,3.41c1.92,0.83,4.16,1.25,6.74,1.25
			c2.33,0,4.36-0.23,6.08-0.68c1.72-0.45,3.06-1.03,4.01-1.72c0.95-0.69,1.42-1.43,1.42-2.22c0-0.32-0.05-0.64-0.15-0.98
			C603.21,92.99,603.04,92.62,602.81,92.23z M585.03,78.58c0.69-0.99,1.63-1.77,2.82-2.35c1.19-0.57,2.51-0.86,3.98-0.86
			c1.27,0,2.37,0.21,3.32,0.62c0.95,0.41,1.7,0.99,2.26,1.72c0.55,0.73,0.83,1.56,0.83,2.46c0,0.71-0.18,1.18-0.53,1.39
			c-0.36,0.22-0.87,0.33-1.54,0.33h-12.16C583.99,80.67,584.34,79.57,585.03,78.58z"/>
	</g>
	<g>
		<path class="st0" d="M77.42,56.92c0.45,0,0.87,0,1.29,0c4.02,0,8.04-0.01,12.06,0c4.32,0.01,6.85,2.36,7.07,6.69
			c0.21,3.92-0.46,7.77-1.24,11.6c-1.49,7.3-3.34,14.49-6.38,21.32c-0.54,1.22-1.22,2.38-1.88,3.54c-2.2,3.9-6.08,5.29-9.99,6.59
			c-1.38,0.46-2.81,0.78-4.23,1.06c-0.76,0.15-1.11,0.43-1.22,1.26c-0.41,3.03-1.35,5.9-3.05,8.48c-3.04,4.61-7.51,7.15-12.73,8.3
			c-3.33,0.73-6.76,1.16-10.16,1.33c-6.77,0.34-13.56,0.42-20.24-1.05c-3.85-0.85-7.42-2.34-10.45-4.95
			c-3.81-3.27-5.89-7.5-6.43-12.38c-0.79-7.28-1.32-14.59-1.94-21.89c-0.69-8.2-1.36-16.41-2.03-24.62
			c-0.31-3.81-0.65-7.61-0.92-11.43c-0.28-4.06,2.3-6.8,6.35-6.8c19.94,0,39.88,0,59.83,0c4.14,0,6.37,2.04,6.56,6.21
			c0.08,1.84-0.17,3.69-0.26,5.54C77.41,56.07,77.42,56.42,77.42,56.92z M74.12,95.73c3.31-0.53,4.43-1.35,5.65-4.17
			c2.16-4.96,3.61-10.14,4.77-15.4c0.55-2.48,0.91-3.97-0.53-5.49c-2.31-2.42-4.43-2.07-7.66-2.07C75.6,77.7,74.86,86.7,74.12,95.73
			z"/>
		<path class="st1" d="M48.88,10.98c-0.17-4.88-3.71-8.66-8.64-8.66c-4.33,0-6.49,2.89-6.49,2.89s-2.16-2.89-6.49-2.89
			c-4.93,0-8.47,3.78-8.64,8.66c0-0.01-0.02,0.35-0.02,0.35c0,5.77,4.72,10.92,9.02,14.79c2.65,2.39,6.13,3.97,6.13,3.97h0
			c0,0,3.48-1.58,6.13-3.97c4.3-3.87,9.02-9.02,9.02-14.79C48.9,11.33,48.89,10.97,48.88,10.98z"/>
		<path class="st1" d="M64.04,27.48c-0.08-2.44-1.86-4.33-4.32-4.33c-2.16,0-3.25,1.44-3.25,1.44s-1.08-1.44-3.25-1.44
			c-2.46,0-4.24,1.89-4.32,4.33c0,0-0.01,0.18-0.01,0.18c0,2.89,2.36,5.46,4.51,7.39c1.33,1.2,3.06,1.98,3.07,1.98h0
			c0,0,1.74-0.79,3.07-1.98c2.15-1.94,4.51-4.51,4.51-7.39C64.05,27.65,64.04,27.47,64.04,27.48z"/>
	</g>
</g>
</svg>
