<?xml version="1.0" encoding="utf-8"?>
<!-- Generator: Adobe Illustrator 24.0.1, SVG Export Plug-In . SVG Version: 6.00 Build 0)  -->
<svg version="1.1" id="Layer_1" xmlns="http://www.w3.org/2000/svg" xmlns:xlink="http://www.w3.org/1999/xlink" x="0px" y="0px"
	 viewBox="0 0 512 512" style="enable-background:new 0 0 512 512;" xml:space="preserve">
<style type="text/css">
	.st0{fill:#FFCC33;}
	.st1{fill:#2B1204;}
	.st2{fill-rule:evenodd;clip-rule:evenodd;fill:#ED1C24;}
</style>
<path class="st0" d="M435.5,501H76.5C40.32,501,11,471.68,11,435.5V76.5C11,40.32,40.32,11,76.5,11H435.5
	c36.17,0,65.5,29.32,65.5,65.5V435.5C501,471.68,471.68,501,435.5,501z"/>
<g>
	<path class="st1" d="M371.84,230.33c1.45,0,2.8,0,4.15,0c12.89,0,25.79-0.02,38.68,0.01c13.85,0.03,21.96,7.57,22.69,21.45
		c0.66,12.59-1.48,24.92-3.98,37.2c-4.77,23.42-10.71,46.49-20.47,68.4c-1.74,3.91-3.93,7.62-6.04,11.36
		c-7.06,12.5-19.5,16.98-32.04,21.15c-4.42,1.47-9,2.49-13.57,3.41c-2.45,0.49-3.56,1.36-3.92,4.04c-1.31,9.73-4.33,18.92-9.77,27.2
		c-9.74,14.8-24.07,22.94-40.83,26.62c-10.67,2.35-21.67,3.73-32.59,4.27c-21.71,1.08-43.48,1.35-64.92-3.36
		c-12.35-2.72-23.79-7.52-33.52-15.88c-12.21-10.49-18.91-24.05-20.61-39.72c-2.54-23.36-4.25-46.8-6.22-70.22
		c-2.22-26.32-4.36-52.64-6.52-78.96c-1-12.22-2.1-24.43-2.94-36.65c-0.9-13.02,7.38-21.8,20.36-21.8
		c63.97-0.01,127.93-0.01,191.9-0.01c13.28,0,20.44,6.54,21.03,19.91c0.26,5.9-0.55,11.85-0.85,17.77
		C371.79,227.62,371.84,228.74,371.84,230.33z M361.23,354.84c10.61-1.69,14.2-4.34,18.13-13.38c6.91-15.91,11.57-32.52,15.31-49.41
		c1.76-7.96,2.92-12.75-1.71-17.59c-7.42-7.77-14.22-6.65-24.57-6.65C365.99,296.98,363.61,325.87,361.23,354.84z"/>
	<path class="st2" d="M280.29,82.97c-0.53-15.65-11.9-27.79-27.72-27.79c-13.88,0-20.83,9.26-20.83,9.26s-6.94-9.26-20.83-9.26
		c-15.81,0-27.18,12.14-27.72,27.79c-0.01-0.02-0.05,1.13-0.05,1.14c0,18.51,15.13,35.01,28.93,47.44
		c8.52,7.67,19.66,12.72,19.67,12.73h0c0.01,0,11.15-5.06,19.67-12.73c13.8-12.42,28.93-28.93,28.93-47.44
		C280.34,84.1,280.3,82.94,280.29,82.97z"/>
	<path class="st2" d="M328.91,135.89c-0.27-7.82-5.95-13.89-13.86-13.89c-6.94,0-10.41,4.63-10.41,4.63s-3.47-4.63-10.41-4.63
		c-7.91,0-13.59,6.07-13.86,13.89c0-0.01-0.03,0.57-0.03,0.57c0,9.26,7.56,17.51,14.46,23.72c4.26,3.83,9.83,6.36,9.83,6.36h0
		c0,0,5.58-2.53,9.83-6.36c6.9-6.21,14.46-14.46,14.46-23.72C328.94,136.46,328.91,135.88,328.91,135.89z"/>
</g>
</svg>
