<?xml version="1.0" encoding="utf-8"?>
<!-- Generator: Adobe Illustrator 24.0.1, SVG Export Plug-In . SVG Version: 6.00 Build 0)  -->
<svg version="1.1" id="Layer_1" xmlns="http://www.w3.org/2000/svg" xmlns:xlink="http://www.w3.org/1999/xlink" x="0px" y="0px"
	 viewBox="0 0 512 512" style="enable-background:new 0 0 512 512;" xml:space="preserve">
<style type="text/css">
	.st0{fill:#FFCC33;}
	.st1{fill:#FFFFFF;}
	.st2{fill:#2B1204;}
	.st3{fill-rule:evenodd;clip-rule:evenodd;fill:#ED1C24;}
</style>
<path class="st0" d="M435.5,501H76.5C40.32,501,11,471.68,11,435.5V76.5C11,40.32,40.32,11,76.5,11H435.5
	c36.17,0,65.5,29.32,65.5,65.5V435.5C501,471.68,471.68,501,435.5,501z"/>
<g>
	<g>
		<path class="st1" d="M251.3,454.09c-16.09,0-29.33-1.26-41.65-3.98c-13.28-2.92-23.96-7.98-32.65-15.45
			c-11.53-9.9-18.23-22.83-19.93-38.42c-1.91-17.56-3.37-35.49-4.79-52.82c-0.47-5.78-0.94-11.57-1.43-17.35
			c-1.69-20-3.36-40.35-4.97-60.02l-1.55-18.93c-0.26-3.22-0.54-6.44-0.81-9.66c-0.74-8.84-1.51-17.98-2.13-26.97
			c-0.4-5.8,1.13-10.73,4.42-14.26c3.3-3.54,8.12-5.41,13.95-5.41c31.44-0.01,62.87-0.01,94.31-0.01l97.59,0
			c12.27,0,18.5,5.89,19.04,18c0.17,3.88-0.14,7.91-0.45,11.81c-0.15,1.89-0.3,3.84-0.4,5.78c-0.04,0.8-0.03,1.57-0.02,2.47
			c0,0.44,0.01,0.92,0.01,1.45c0,1.1,0.9,2,2,2l27.55-0.01c5.09,0,10.19,0,15.28,0.01c12.87,0.03,20.03,6.79,20.7,19.56
			c0.67,12.75-1.58,25.12-3.94,36.7c-3.91,19.18-9.75,44.24-20.34,67.99c-1.46,3.29-3.3,6.52-5.08,9.66l-0.87,1.53
			c-6.41,11.34-17.33,15.71-30.93,20.24c-4.45,1.48-9.04,2.48-13.33,3.35c-3.46,0.69-5.05,2.35-5.51,5.73
			c-1.37,10.15-4.46,18.77-9.46,26.36c-8.72,13.24-22.04,21.91-39.59,25.77c-10.23,2.25-21.08,3.67-32.26,4.23
			C264.93,453.89,257.92,454.09,251.3,454.09z M374.85,265.75c-0.98,0-1.98,0.01-3.02,0.03c-1.1,0.01-2.24,0.03-3.43,0.03
			c-1.04,0-1.91,0.8-1.99,1.84l-7.17,87.03c-0.05,0.61,0.18,1.21,0.63,1.63c0.37,0.35,0.86,0.53,1.36,0.53
			c0.1,0,0.21-0.01,0.31-0.03c11.24-1.79,15.46-4.92,19.65-14.56c6.13-14.1,11.03-29.92,15.43-49.77l0.09-0.39
			c1.74-7.82,2.99-13.48-2.3-19.02C387.94,266.3,381.72,265.75,374.85,265.75z"/>
		<path class="st2" d="M254.07,192.82l53.37,0l44.22,0c11.29,0,16.54,4.96,17.04,16.09c0.17,3.76-0.13,7.54-0.44,11.56
			c-0.15,1.9-0.3,3.87-0.4,5.84c-0.04,0.86-0.03,1.66-0.02,2.59c0.01,0.43,0.01,0.9,0.01,1.43c0,2.21,1.79,4,4,4h2.8h1.35h0.22
			c3.86,0,7.73,0,11.59,0c3.86,0,7.72,0,11.59,0c5.09,0,10.19,0,15.28,0.01c11.8,0.03,18.09,5.97,18.7,17.66
			c0.65,12.51-1.57,24.74-3.91,36.2c-3.89,19.08-9.7,44-20.2,67.57c-1.43,3.2-3.16,6.26-5,9.5l-0.86,1.52
			c-6.06,10.72-16.63,14.93-29.82,19.32c-4.34,1.44-8.86,2.43-13.1,3.28c-2.69,0.54-6.35,1.9-7.1,7.42
			c-1.33,9.84-4.32,18.19-9.15,25.53c-8.54,12.97-21.08,21.12-38.35,24.91c-10.12,2.22-20.86,3.63-31.93,4.18
			c-9.08,0.45-16.06,0.65-22.64,0.65c-15.94,0-29.04-1.25-41.22-3.93c-12.94-2.85-23.34-7.76-31.78-15.01
			c-11.13-9.56-17.6-22.05-19.24-37.12c-1.91-17.55-3.37-35.47-4.78-52.79c-0.47-5.78-0.94-11.55-1.43-17.33
			c-1.69-20.05-3.36-40.45-4.98-60.17l-1.54-18.78c-0.26-3.22-0.54-6.44-0.81-9.66c-0.74-8.83-1.51-17.97-2.13-26.94
			c-0.36-5.23,0.98-9.64,3.89-12.76c2.91-3.12,7.23-4.77,12.48-4.77C191.19,192.82,222.63,192.82,254.07,192.82 M361.23,358.84
			c0.21,0,0.42-0.02,0.63-0.05c11.94-1.9,16.69-5.43,21.17-15.73c6.18-14.22,11.12-30.15,15.55-50.14l0.09-0.39
			c1.8-8.11,3.22-14.52-2.81-20.83c-7-7.34-13.93-7.95-21-7.95c-0.98,0-2,0.01-3.05,0.03c-1.09,0.01-2.23,0.03-3.41,0.03
			c-2.08,0-3.82,1.6-3.99,3.67l-0.2,2.4l-6.97,84.63c-0.1,1.22,0.37,2.43,1.27,3.26C359.25,358.47,360.23,358.84,361.23,358.84
			 M254.07,188.82c-31.43,0-62.88,0-94.31,0.01c-12.98,0-21.26,8.78-20.36,21.8c0.85,12.23,1.94,24.44,2.94,36.65
			c2.16,26.32,4.3,52.64,6.52,78.96c1.98,23.42,3.68,46.86,6.22,70.22c1.71,15.67,8.4,29.23,20.61,39.72
			c9.74,8.37,21.17,13.16,33.52,15.88c13.92,3.06,27.98,4.02,42.08,4.02c7.61,0,15.23-0.28,22.84-0.66
			c10.92-0.54,21.92-1.93,32.59-4.27c16.76-3.68,31.09-11.82,40.83-26.62c5.45-8.27,8.46-17.47,9.77-27.2
			c0.36-2.67,1.47-3.54,3.92-4.04c4.57-0.92,9.16-1.94,13.57-3.41c12.54-4.17,24.98-8.65,32.04-21.15c2.11-3.73,4.3-7.45,6.04-11.36
			c9.76-21.91,15.7-44.99,20.47-68.4c2.5-12.28,4.64-24.62,3.98-37.2c-0.73-13.88-8.84-21.42-22.69-21.45
			c-5.1-0.01-10.19-0.01-15.29-0.01c-7.72,0-15.45,0.01-23.17,0.01c-0.07,0-0.15,0-0.22,0c-0.45,0-0.9,0-1.35,0
			c-0.91,0-1.83,0-2.8,0c0-1.59-0.05-2.71,0.01-3.82c0.3-5.93,1.11-11.87,0.85-17.77c-0.59-13.38-7.75-19.91-21.03-19.91
			C319.12,188.82,286.6,188.82,254.07,188.82L254.07,188.82z M361.23,354.84c2.39-28.97,4.76-57.86,7.17-87.03
			c2.31,0,4.45-0.06,6.46-0.06c6.96,0,12.35,0.67,18.11,6.71c4.63,4.85,3.47,9.63,1.71,17.59c-3.74,16.89-8.4,33.5-15.31,49.41
			C375.43,350.5,371.83,353.15,361.23,354.84L361.23,354.84z"/>
	</g>
	<path class="st3" d="M280.29,82.97c-0.53-15.65-11.9-27.79-27.72-27.79c-13.88,0-20.83,9.26-20.83,9.26s-6.94-9.26-20.83-9.26
		c-15.81,0-27.18,12.14-27.72,27.79c-0.01-0.02-0.05,1.13-0.05,1.14c0,18.51,15.13,35.01,28.93,47.44
		c8.52,7.67,19.66,12.72,19.67,12.73h0c0.01,0,11.15-5.06,19.67-12.73c13.8-12.42,28.93-28.93,28.93-47.44
		C280.34,84.1,280.3,82.94,280.29,82.97z"/>
	<path class="st3" d="M328.91,135.89c-0.27-7.82-5.95-13.89-13.86-13.89c-6.94,0-10.41,4.63-10.41,4.63s-3.47-4.63-10.41-4.63
		c-7.91,0-13.59,6.07-13.86,13.89c0-0.01-0.03,0.57-0.03,0.57c0,9.26,7.56,17.51,14.46,23.72c4.26,3.83,9.83,6.36,9.83,6.36h0
		c0,0,5.58-2.53,9.83-6.36c6.9-6.21,14.46-14.46,14.46-23.72C328.94,136.46,328.91,135.88,328.91,135.89z"/>
</g>
</svg>
