<?xml version="1.0" encoding="utf-8"?>
<!-- Generator: Adobe Illustrator 24.0.1, SVG Export Plug-In . SVG Version: 6.00 Build 0)  -->
<svg version="1.1" id="Layer_1" xmlns="http://www.w3.org/2000/svg" xmlns:xlink="http://www.w3.org/1999/xlink" x="0px" y="0px"
	 viewBox="0 0 512 512" style="enable-background:new 0 0 512 512;" xml:space="preserve">
<style type="text/css">
	.st0{fill:#2B1204;}
	.st1{fill-rule:evenodd;clip-rule:evenodd;fill:#ED1C24;}
</style>
<g>
	<path class="st0" d="M377.89,228.49c1.56,0,3.01,0,4.45,0c13.83,0,27.66-0.02,41.49,0.01c14.85,0.03,23.56,8.12,24.33,23.01
		c0.71,13.5-1.58,26.73-4.27,39.9c-5.12,25.12-11.48,49.86-21.95,73.37c-1.87,4.19-4.21,8.18-6.47,12.18
		c-7.57,13.41-20.92,18.21-34.37,22.68c-4.74,1.58-9.66,2.67-14.56,3.66c-2.63,0.53-3.82,1.46-4.21,4.33
		c-1.41,10.44-4.64,20.3-10.48,29.17c-10.45,15.87-25.82,24.6-43.8,28.55c-11.44,2.52-23.25,4-34.96,4.58
		c-23.29,1.16-46.64,1.45-69.63-3.61c-13.25-2.92-25.51-8.06-35.96-17.04c-13.1-11.25-20.28-25.8-22.11-42.61
		c-2.73-25.05-4.55-50.2-6.67-75.31c-2.38-28.22-4.67-56.46-6.99-84.69c-1.08-13.1-2.25-26.2-3.16-39.31
		c-0.97-13.97,7.91-23.38,21.84-23.39c68.61-0.01,137.22-0.01,205.82-0.01c14.24,0,21.92,7.01,22.56,21.36
		c0.28,6.33-0.59,12.71-0.91,19.06C377.84,225.59,377.89,226.78,377.89,228.49z M366.51,362.04c11.38-1.81,15.23-4.66,19.44-14.35
		c7.41-17.06,12.41-34.88,16.42-52.99c1.89-8.54,3.13-13.67-1.83-18.87c-7.96-8.34-15.25-7.13-26.35-7.13
		C371.62,299.98,369.07,330.97,366.51,362.04z"/>
	<path class="st1" d="M279.7,70.44c-0.57-16.78-12.77-29.8-29.73-29.8c-14.89,0-22.34,9.93-22.34,9.93s-7.45-9.93-22.34-9.93
		c-16.96,0-29.16,13.02-29.73,29.8c-0.01-0.02-0.05,1.21-0.05,1.22c0,19.86,16.23,37.56,31.02,50.88
		c9.13,8.22,21.09,13.65,21.1,13.65h0c0.01,0,11.96-5.43,21.1-13.65c14.8-13.32,31.02-31.02,31.02-50.88
		C279.76,71.65,279.71,70.41,279.7,70.44z"/>
	<path class="st1" d="M331.85,127.2c-0.29-8.39-6.38-14.9-14.86-14.9c-7.45,0-11.17,4.96-11.17,4.96s-3.72-4.96-11.17-4.96
		c-8.48,0-14.58,6.51-14.86,14.9c0-0.01-0.03,0.61-0.03,0.61c0,9.93,8.11,18.78,15.51,25.44c4.57,4.11,10.54,6.82,10.55,6.83h0
		c0,0,5.98-2.71,10.55-6.83c7.4-6.66,15.51-15.51,15.51-25.44C331.88,127.81,331.85,127.19,331.85,127.2z"/>
</g>
</svg>
