<?xml version="1.0" encoding="utf-8"?>
<!-- Generator: Adobe Illustrator 24.0.1, SVG Export Plug-In . SVG Version: 6.00 Build 0)  -->
<svg version="1.1" id="Layer_1" xmlns="http://www.w3.org/2000/svg" xmlns:xlink="http://www.w3.org/1999/xlink" x="0px" y="0px"
	 viewBox="0 0 1024 250" style="enable-background:new 0 0 1024 250;" xml:space="preserve">
<style type="text/css">
	.st0{fill:#FFFFFF;}
	.st1{fill:#2B1204;}
	.st2{fill-rule:evenodd;clip-rule:evenodd;fill:#ED1C24;}
</style>
<g>
	<g>
		<path class="st0" d="M346.95,113.51c-0.81-0.53-2.06-0.8-3.75-0.8c-1.12,0-2.03,0.06-2.71,0.19c-0.69,0.12-1.25,0.32-1.69,0.56
			c-0.44,0.25-0.87,0.63-1.31,1.12l-21.87,30.53l-21.78-30.43c-0.37-0.44-0.75-0.8-1.12-1.08c-0.37-0.28-0.89-0.5-1.55-0.66
			c-0.65-0.15-1.64-0.23-2.95-0.23c-1.75,0-3.03,0.27-3.84,0.8c-0.81,0.53-1.33,1.22-1.55,2.06c-0.22,0.85-0.33,1.77-0.33,2.76
			v54.04c0,1.06,0.11,2.03,0.33,2.9c0.21,0.88,0.73,1.56,1.55,2.07c0.81,0.5,2.03,0.74,3.65,0.74c1.75,0,3.03-0.25,3.84-0.74
			c0.81-0.5,1.33-1.18,1.54-2.07c0.22-0.87,0.33-1.78,0.33-2.71V132.2l16.95,24.54c0.31,0.37,0.64,0.75,0.98,1.12
			c0.34,0.37,0.83,0.72,1.46,1.03c0.62,0.31,1.43,0.47,2.43,0.47c1.06,0,1.91-0.16,2.53-0.47c0.63-0.32,1.13-0.67,1.5-1.08
			c0.37-0.41,0.65-0.73,0.84-0.99l17.05-24.63v40.18c0,1,0.11,1.94,0.33,2.81c0.21,0.87,0.73,1.57,1.54,2.1
			c0.81,0.53,2.07,0.8,3.75,0.8c1.75,0,3.03-0.25,3.84-0.74c0.81-0.5,1.33-1.18,1.55-2.07c0.22-0.87,0.33-1.78,0.33-2.71v-54.04
			c0-1.06-0.11-2.03-0.33-2.9C348.28,114.75,347.76,114.04,346.95,113.51z"/>
		<path class="st0" d="M399.35,156.27c1.59-1.5,2.39-3.9,2.39-7.21c0-1.94-0.45-3.94-1.36-6c-0.9-2.06-2.22-3.95-3.93-5.66
			c-1.72-1.72-3.85-3.1-6.42-4.17c-2.56-1.06-5.52-1.59-8.9-1.59c-4.75,0-8.94,1-12.59,3c-3.66,2-6.51,4.75-8.57,8.24
			s-3.09,7.49-3.09,11.99c0,3.06,0.51,6.01,1.55,8.85c1.03,2.84,2.56,5.41,4.59,7.68c2.03,2.28,4.56,4.07,7.59,5.38
			c3.02,1.31,6.57,1.97,10.63,1.97c3.68,0,6.88-0.36,9.6-1.08c2.72-0.72,4.82-1.62,6.32-2.72c1.5-1.09,2.25-2.26,2.25-3.51
			c0-0.5-0.08-1.02-0.23-1.55c-0.16-0.53-0.42-1.11-0.8-1.73c-0.44-0.94-1-1.59-1.69-1.97c-0.69-0.37-1.38-0.53-2.06-0.47
			c-0.5,0.06-1.03,0.22-1.6,0.47c-0.56,0.25-1.17,0.53-1.82,0.85c-0.66,0.31-1.42,0.61-2.3,0.89c-0.87,0.28-1.92,0.52-3.14,0.71
			c-1.22,0.19-2.61,0.28-4.17,0.28c-2.06,0-4.07-0.42-6.04-1.26c-1.97-0.85-3.59-2.05-4.87-3.61c-1.28-1.56-1.95-3.4-2.01-5.52
			h24.72C395.77,158.51,397.76,157.76,399.35,156.27z M390.31,151.35c-0.56,0.34-1.38,0.52-2.44,0.52h-19.19
			c0-1.94,0.54-3.68,1.64-5.25c1.09-1.56,2.57-2.79,4.45-3.7c1.87-0.9,3.97-1.35,6.28-1.35c2,0,3.75,0.33,5.24,0.98
			c1.5,0.65,2.69,1.56,3.56,2.71c0.87,1.16,1.31,2.45,1.31,3.89C391.15,150.27,390.88,151.01,390.31,151.35z"/>
		<path class="st0" d="M473.9,118.34c-2.09-1.87-4.45-3.28-7.07-4.21c-2.62-0.94-5.31-1.4-8.06-1.4h-19.85
			c-1.75,0-3.03,0.27-3.84,0.8c-0.81,0.53-1.33,1.22-1.55,2.06c-0.22,0.85-0.33,1.77-0.33,2.76v54.04c0,1,0.09,1.95,0.28,2.85
			c0.19,0.91,0.68,1.61,1.5,2.11c0.81,0.5,2.09,0.74,3.84,0.74c1.81,0,3.1-0.25,3.89-0.74c0.78-0.5,1.28-1.18,1.5-2.07
			c0.22-0.87,0.33-1.81,0.33-2.81v-15.54h14.14c2.81,0,5.51-0.47,8.1-1.4c2.59-0.94,4.95-2.34,7.07-4.21s3.79-4.17,5.01-6.88
			c1.22-2.71,1.83-5.88,1.83-9.51c0-3.68-0.61-6.9-1.83-9.65C477.65,122.52,475.99,120.21,473.9,118.34z M467.95,140.77
			c-1,1.59-2.3,2.78-3.89,3.55c-1.59,0.78-3.36,1.17-5.29,1.17h-14.24v-21.45h14.14c2.18,0,4.07,0.43,5.66,1.31
			c1.59,0.87,2.84,2.1,3.75,3.7c0.9,1.59,1.36,3.48,1.36,5.66C469.46,137.16,468.95,139.17,467.95,140.77z"/>
		<path class="st0" d="M530.99,132.81c-0.75-0.53-2-0.8-3.75-0.8c-1.87,0-3.25,0.36-4.12,1.08c-0.87,0.72-1.31,1.77-1.31,3.14
			l0.56,2.72c-0.81-1.12-1.84-2.2-3.09-3.23c-1.25-1.03-2.76-1.88-4.54-2.57c-1.78-0.69-3.96-1.03-6.51-1.03
			c-2.87,0-5.61,0.61-8.2,1.83c-2.59,1.22-4.89,2.89-6.88,5.01c-2,2.12-3.57,4.54-4.73,7.26c-1.16,2.72-1.73,5.61-1.73,8.67
			c0,3.18,0.58,6.17,1.73,8.94c1.16,2.78,2.71,5.25,4.68,7.4c1.97,2.16,4.24,3.84,6.84,5.06c2.59,1.21,5.35,1.82,8.29,1.82
			c2.75,0,5.09-0.42,7.02-1.26c1.94-0.84,3.49-1.81,4.68-2.9c1.18-1.09,2.03-2.05,2.53-2.86l-0.65,3.09c0,1.19,0.43,2.13,1.31,2.81
			c0.87,0.69,2.22,1.03,4.03,1.03c1.75,0,3.01-0.25,3.79-0.75c0.78-0.5,1.26-1.18,1.46-2.06c0.19-0.87,0.28-1.84,0.28-2.91V138
			c0-1.12-0.09-2.14-0.28-3.05C532.2,134.05,531.73,133.34,530.99,132.81z M519.7,161.18c-1.03,1.85-2.39,3.3-4.07,4.36
			s-3.59,1.59-5.71,1.59c-2.31,0-4.39-0.53-6.23-1.59c-1.85-1.06-3.3-2.49-4.36-4.31c-1.06-1.81-1.59-3.84-1.59-6.08
			c0-2.31,0.51-4.39,1.55-6.23c1.03-1.85,2.45-3.31,4.26-4.41c1.81-1.09,3.87-1.64,6.18-1.64c2.13,0,4.05,0.51,5.76,1.55
			c1.72,1.03,3.11,2.45,4.17,4.26s1.59,3.93,1.59,6.37C521.25,157.29,520.73,159.34,519.7,161.18z"/>
		<path class="st0" d="M582.68,133.02c-0.74-0.47-1.96-0.7-3.65-0.7c-1.81,0-3.15,0.3-4.03,0.89c-0.87,0.59-1.37,1.61-1.5,3.04
			l0.01,2.43c-1.36-1.94-3.06-3.47-5.11-4.54c-2.09-1.09-4.54-1.64-7.35-1.64c-2.87,0-5.57,0.58-8.1,1.73
			c-2.53,1.16-4.75,2.76-6.65,4.82c-1.9,2.06-3.4,4.43-4.49,7.12c-1.09,2.69-1.64,5.59-1.64,8.71c0,3.19,0.55,6.14,1.64,8.85
			c1.09,2.71,2.59,5.11,4.49,7.17c1.91,2.06,4.12,3.65,6.65,4.77c2.53,1.13,5.26,1.69,8.19,1.69c3.75,0,6.84-0.9,9.28-2.71
			c1.2-0.9,2.26-1.99,3.17-3.27l0.01,3.64c0,1.87-0.28,3.56-0.84,5.06c-0.56,1.5-1.33,2.79-2.3,3.88c-0.97,1.09-2.14,1.92-3.51,2.48
			c-1.38,0.56-2.88,0.85-4.5,0.85c-1.94,0-3.53-0.25-4.78-0.75c-1.25-0.5-2.31-1.06-3.18-1.69c-0.87-0.63-1.64-1.18-2.3-1.69
			c-0.65-0.5-1.33-0.74-2.01-0.74c-0.81,0-1.45,0.19-1.92,0.56c-0.47,0.38-1.08,0.94-1.83,1.69c-0.56,0.62-0.98,1.25-1.26,1.87
			c-0.28,0.62-0.42,1.37-0.42,2.25c0,0.87,0.48,1.81,1.45,2.81c0.96,1,2.28,1.94,3.93,2.81c1.65,0.87,3.52,1.58,5.57,2.11
			c2.06,0.53,4.21,0.8,6.46,0.8c3,0,5.82-0.49,8.47-1.45c2.66-0.97,5.01-2.38,7.08-4.21c2.06-1.85,3.68-4.11,4.87-6.79
			c1.18-2.69,1.78-5.74,1.78-9.18v-37.93c0-1-0.09-1.92-0.28-2.76C583.9,134.15,583.43,133.49,582.68,133.02z M571.78,160.98
			c-0.97,1.81-2.29,3.23-3.94,4.27c-1.65,1.03-3.54,1.54-5.66,1.54s-4.01-0.51-5.66-1.54c-1.66-1.03-2.97-2.44-3.93-4.21
			c-0.97-1.78-1.46-3.83-1.46-6.14c0-2.31,0.47-4.34,1.4-6.09c0.94-1.74,2.23-3.14,3.89-4.16c1.65-1.03,3.54-1.55,5.66-1.55
			c2.13,0,4.03,0.5,5.72,1.5c1.69,1,3.01,2.39,3.98,4.17c0.96,1.78,1.45,3.83,1.45,6.13C573.23,157.14,572.74,159.16,571.78,160.98z
			"/>
		<path class="st0" d="M636.63,132.81c-0.75-0.53-2-0.8-3.75-0.8c-1.87,0-3.25,0.36-4.12,1.08c-0.87,0.72-1.31,1.77-1.31,3.14
			l0.56,2.72c-0.81-1.12-1.84-2.2-3.09-3.23c-1.25-1.03-2.76-1.88-4.54-2.57c-1.78-0.69-3.96-1.03-6.51-1.03
			c-2.87,0-5.61,0.61-8.2,1.83c-2.59,1.22-4.89,2.89-6.88,5.01c-2,2.12-3.57,4.54-4.73,7.26c-1.16,2.72-1.73,5.61-1.73,8.67
			c0,3.18,0.58,6.17,1.73,8.94c1.16,2.78,2.71,5.25,4.68,7.4c1.97,2.16,4.24,3.84,6.84,5.06c2.59,1.21,5.35,1.82,8.29,1.82
			c2.75,0,5.09-0.42,7.02-1.26c1.94-0.84,3.49-1.81,4.68-2.9c1.18-1.09,2.03-2.05,2.53-2.86l-0.65,3.09c0,1.19,0.43,2.13,1.31,2.81
			c0.87,0.69,2.22,1.03,4.03,1.03c1.75,0,3.01-0.25,3.79-0.75c0.78-0.5,1.26-1.18,1.46-2.06c0.19-0.87,0.28-1.84,0.28-2.91V138
			c0-1.12-0.09-2.14-0.28-3.05C637.85,134.05,637.38,133.34,636.63,132.81z M625.34,161.18c-1.03,1.85-2.39,3.3-4.07,4.36
			s-3.59,1.59-5.71,1.59c-2.31,0-4.39-0.53-6.23-1.59c-1.84-1.06-3.3-2.49-4.36-4.31c-1.06-1.81-1.59-3.84-1.59-6.08
			c0-2.31,0.51-4.39,1.55-6.23c1.03-1.85,2.45-3.31,4.26-4.41c1.81-1.09,3.87-1.64,6.18-1.64c2.13,0,4.05,0.51,5.76,1.55
			c1.72,1.03,3.11,2.45,4.17,4.26s1.59,3.93,1.59,6.37C626.89,157.29,626.38,159.34,625.34,161.18z"/>
		<path class="st0" d="M711.46,132.76c-0.75-0.5-2-0.75-3.75-0.75c-1.75,0-3.03,0.24-3.84,0.71c-0.81,0.47-1.31,1.12-1.5,1.97
			c-0.19,0.84-0.28,1.79-0.28,2.85v18.73c0,2.18-0.44,4.11-1.31,5.76c-0.87,1.65-2.1,2.93-3.7,3.84c-1.59,0.91-3.52,1.36-5.76,1.36
			c-2.19,0-4.03-0.45-5.53-1.36c-1.5-0.9-2.63-2.17-3.41-3.79c-0.78-1.62-1.17-3.56-1.17-5.81v-18.55c0-1.06-0.09-2.03-0.28-2.91
			c-0.19-0.87-0.67-1.56-1.45-2.06c-0.78-0.5-2.08-0.75-3.89-0.75c-1.69,0-2.93,0.25-3.75,0.75c-0.81,0.5-1.31,1.17-1.5,2.01
			c-0.19,0.85-0.28,1.79-0.28,2.85v18.64c0,3.24,0.5,6.21,1.5,8.9c1,2.69,2.4,4.99,4.21,6.93c1.81,1.94,3.92,3.42,6.32,4.45
			c2.4,1.03,5.04,1.54,7.91,1.54c1.75,0,3.34-0.25,4.78-0.74c1.43-0.5,2.7-1.14,3.79-1.92c1.09-0.78,2.01-1.56,2.76-2.34
			c0.75-0.78,1.31-1.45,1.69-2.01l-0.75,2.53c0,0.5,0.05,1,0.14,1.5c0.09,0.5,0.31,0.99,0.65,1.46c0.34,0.47,0.87,0.84,1.59,1.12
			c0.72,0.28,1.7,0.42,2.95,0.42c1.75,0,3.01-0.25,3.79-0.74c0.78-0.5,1.28-1.16,1.5-1.97s0.33-1.69,0.33-2.62v-35.12
			c0-0.99-0.11-1.93-0.33-2.81C712.69,133.95,712.21,133.26,711.46,132.76z"/>
		<path class="st0" d="M781.84,134.63c-2.47-1.81-5.51-2.71-9.13-2.71c-2.18,0-4.15,0.39-5.9,1.17c-1.75,0.78-3.28,1.85-4.59,3.19
			c-1.31,1.34-2.49,2.83-3.55,4.45c-1-1.87-2.17-3.46-3.52-4.77c-1.34-1.31-2.87-2.31-4.59-3c-1.72-0.68-3.61-1.03-5.67-1.03
			c-1.5,0-2.93,0.25-4.3,0.75c-1.38,0.5-2.61,1.16-3.7,1.96c-1.09,0.81-2.01,1.62-2.76,2.44c-0.75,0.81-1.28,1.56-1.6,2.25
			l0.85-2.62c0-1.62-0.42-2.81-1.26-3.55c-0.85-0.75-2.17-1.13-3.98-1.13c-1.75,0-3.03,0.25-3.84,0.75c-0.81,0.5-1.31,1.16-1.5,1.97
			c-0.19,0.81-0.28,1.72-0.28,2.71v35.03c0,1,0.1,1.94,0.28,2.81c0.19,0.88,0.67,1.56,1.45,2.07c0.78,0.5,2.01,0.74,3.7,0.74
			c1.81,0,3.1-0.23,3.89-0.7c0.78-0.47,1.28-1.14,1.5-2.01c0.22-0.87,0.33-1.81,0.33-2.81v-18.35c0-2.19,0.34-4.12,1.03-5.81
			c0.69-1.68,1.7-3.02,3.05-4.02c1.34-1,2.98-1.5,4.91-1.5c1.81,0,3.26,0.45,4.36,1.36c1.09,0.9,1.92,2.22,2.48,3.93
			c0.56,1.72,0.84,3.73,0.84,6.04v18.17c0,0.94,0.08,1.83,0.24,2.67c0.15,0.84,0.59,1.55,1.31,2.1c0.72,0.56,1.86,0.87,3.42,0.94
			c1.69,0.12,2.98-0.05,3.89-0.51c0.9-0.47,1.51-1.16,1.83-2.06c0.31-0.9,0.47-1.89,0.47-2.95V154.3c0-2.43,0.37-4.5,1.12-6.18
			c0.75-1.69,1.79-2.98,3.14-3.89c1.34-0.91,2.95-1.36,4.82-1.36c1.74,0,3.17,0.47,4.26,1.4c1.09,0.94,1.92,2.25,2.48,3.93
			c0.56,1.69,0.84,3.68,0.84,6v18.17c0,1.06,0.1,2.01,0.28,2.85c0.19,0.85,0.69,1.53,1.5,2.06c0.81,0.53,2.09,0.8,3.84,0.8
			s3.01-0.25,3.79-0.74c0.78-0.5,1.28-1.17,1.5-2.01c0.22-0.85,0.33-1.79,0.33-2.86V154.3c0-4.62-0.64-8.6-1.92-11.94
			C786.18,139.02,784.31,136.44,781.84,134.63z"/>
		<path class="st0" d="M838.69,129.15c2.03-1.84,4.32-3.23,6.88-4.16c2.56-0.94,5.19-1.4,7.87-1.4c2.25,0,4.16,0.21,5.76,0.65
			c1.6,0.43,2.87,0.92,3.84,1.45c0.96,0.53,1.64,0.92,2.01,1.17c0.87,0.56,1.61,1.03,2.2,1.4c0.59,0.38,1.23,0.56,1.92,0.56
			c0.75,0,1.5-0.25,2.25-0.75c0.74-0.5,1.5-1.28,2.25-2.34c0.43-0.62,0.78-1.23,1.03-1.82c0.25-0.59,0.34-1.26,0.28-2.01
			c-0.06-1.12-0.55-2.08-1.45-2.86c-0.9-0.78-1.86-1.48-2.85-2.1c-0.5-0.31-1.47-0.86-2.91-1.64c-1.43-0.78-3.31-1.51-5.62-2.2
			c-2.31-0.68-5.06-1.03-8.24-1.03c-3.13,0.06-6.26,0.55-9.42,1.45c-3.15,0.91-6.15,2.23-8.99,3.98c-2.84,1.74-5.37,3.93-7.59,6.56
			c-2.22,2.62-3.98,5.66-5.29,9.13c-1.31,3.46-1.96,7.35-1.96,11.66c0,4.37,0.65,8.35,1.96,11.94c1.31,3.59,3.08,6.74,5.29,9.46
			c2.22,2.71,4.76,4.99,7.63,6.83c2.87,1.85,5.87,3.22,8.99,4.12c3.12,0.9,6.21,1.35,9.27,1.35c3.24,0,6.03-0.33,8.33-0.98
			c2.31-0.65,4.17-1.37,5.57-2.16c1.4-0.78,2.36-1.33,2.85-1.64c1-0.56,1.95-1.24,2.86-2.01c0.9-0.78,1.39-1.73,1.45-2.85
			c0.06-0.69-0.03-1.34-0.28-1.97c-0.25-0.62-0.59-1.28-1.03-1.97c-0.68-1.12-1.39-1.93-2.1-2.43s-1.45-0.75-2.2-0.75
			c-0.69,0-1.34,0.19-1.97,0.56c-0.62,0.37-1.28,0.78-1.96,1.21c-0.56,0.32-1.39,0.77-2.48,1.36c-1.09,0.59-2.4,1.09-3.93,1.5
			c-1.53,0.41-3.36,0.61-5.48,0.61c-2.69,0-5.31-0.47-7.87-1.4c-2.56-0.94-4.85-2.32-6.88-4.17c-2.03-1.84-3.64-4.12-4.82-6.84
			c-1.18-2.71-1.78-5.82-1.78-9.32c0-3.5,0.59-6.61,1.78-9.32C835.05,133.28,836.65,131,838.69,129.15z"/>
		<path class="st0" d="M925.56,132.81c-0.75-0.53-2-0.8-3.75-0.8c-1.87,0-3.25,0.36-4.12,1.08c-0.87,0.72-1.31,1.77-1.31,3.14
			l0.56,2.72c-0.81-1.12-1.84-2.2-3.09-3.23c-1.25-1.03-2.76-1.88-4.54-2.57c-1.78-0.69-3.96-1.03-6.51-1.03
			c-2.87,0-5.61,0.61-8.2,1.83c-2.59,1.22-4.89,2.89-6.88,5.01c-2,2.12-3.57,4.54-4.73,7.26c-1.16,2.72-1.73,5.61-1.73,8.67
			c0,3.18,0.58,6.17,1.73,8.94c1.16,2.78,2.71,5.25,4.68,7.4c1.97,2.16,4.24,3.84,6.84,5.06c2.59,1.21,5.35,1.82,8.29,1.82
			c2.75,0,5.09-0.42,7.02-1.26c1.94-0.84,3.49-1.81,4.68-2.9c1.18-1.09,2.03-2.05,2.53-2.86l-0.65,3.09c0,1.19,0.43,2.13,1.31,2.81
			c0.87,0.69,2.22,1.03,4.03,1.03c1.75,0,3.01-0.25,3.79-0.75c0.78-0.5,1.26-1.18,1.46-2.06c0.19-0.87,0.28-1.84,0.28-2.91V138
			c0-1.12-0.09-2.14-0.28-3.05C926.77,134.05,926.3,133.34,925.56,132.81z M914.27,161.18c-1.03,1.85-2.39,3.3-4.07,4.36
			s-3.59,1.59-5.71,1.59c-2.31,0-4.39-0.53-6.23-1.59c-1.85-1.06-3.3-2.49-4.36-4.31c-1.06-1.81-1.59-3.84-1.59-6.08
			c0-2.31,0.51-4.39,1.55-6.23c1.03-1.85,2.45-3.31,4.26-4.41c1.81-1.09,3.87-1.64,6.18-1.64c2.13,0,4.05,0.51,5.76,1.55
			c1.72,1.03,3.11,2.45,4.17,4.26s1.59,3.93,1.59,6.37C915.81,157.29,915.3,159.34,914.27,161.18z"/>
		<path class="st0" d="M963.63,132.99c-0.84-0.22-1.79-0.33-2.85-0.33l-7.59,0.22v-6.12c0-1.06,0.11-1.94,0.33-2.62
			c0.22-0.69,0.56-1.18,1.03-1.5c0.47-0.32,1.09-0.52,1.87-0.61c0.78-0.1,1.7-0.14,2.76-0.14c1.06,0,2.03-0.1,2.9-0.28
			c0.87-0.19,1.58-0.69,2.11-1.5c0.53-0.81,0.8-2.06,0.8-3.75c0-1.81-0.27-3.09-0.8-3.84c-0.53-0.75-1.22-1.24-2.06-1.46
			c-0.85-0.21-1.8-0.33-2.86-0.33c-3.12,0-5.77,0.42-7.96,1.26c-2.18,0.85-3.97,1.99-5.34,3.42c-1.37,1.44-2.38,3.14-3,5.11
			c-0.63,1.97-0.94,4.11-0.94,6.42v6.03l-3.84-0.04c-1.5,0-2.61,0.42-3.32,1.27c-0.72,0.84-1.08,2.17-1.08,3.98
			c0,1.94,0.3,3.32,0.89,4.17c0.59,0.84,1.67,1.29,3.23,1.35l4.12-0.04v28.79c0,1,0.1,1.95,0.28,2.86c0.19,0.9,0.67,1.61,1.45,2.1
			c0.78,0.5,2.01,0.75,3.7,0.75c1.74,0,3.02-0.25,3.84-0.75c0.81-0.5,1.33-1.17,1.55-2.01c0.22-0.84,0.33-1.76,0.33-2.76V143.7
			l7.68,0.11c1.06,0,2-0.11,2.81-0.33c0.81-0.22,1.47-0.73,1.97-1.55c0.5-0.81,0.75-2.03,0.75-3.65c0-1.75-0.25-3.01-0.75-3.8
			C965.14,133.71,964.47,133.21,963.63,132.99z"/>
		<path class="st0" d="M988.16,126.67c0.65,0.56,1.48,0.75,2.48,0.56l15.64-4.97c1.5-0.5,2.45-1.2,2.85-2.1
			c0.41-0.91,0.3-2.2-0.33-3.89c-0.37-1.44-0.89-2.45-1.55-3.05c-0.65-0.59-1.48-0.8-2.48-0.61l-15.74,4.97
			c-1.56,0.5-2.52,1.2-2.85,2.11c-0.34,0.9-0.24,2.23,0.33,3.98C986.96,125.11,987.51,126.11,988.16,126.67z"/>
		<path class="st0" d="M1012.75,168.16c-0.44-0.94-1-1.59-1.69-1.97c-0.69-0.37-1.38-0.53-2.06-0.47c-0.5,0.06-1.03,0.22-1.6,0.47
			c-0.56,0.25-1.17,0.53-1.82,0.85c-0.66,0.31-1.42,0.61-2.3,0.89c-0.87,0.28-1.92,0.52-3.14,0.71c-1.22,0.19-2.61,0.28-4.17,0.28
			c-2.06,0-4.07-0.42-6.04-1.26c-1.97-0.85-3.59-2.05-4.87-3.61c-1.28-1.56-1.95-3.4-2.01-5.52h24.72c2.37,0,4.36-0.75,5.95-2.25
			c1.59-1.5,2.39-3.9,2.39-7.21c0-1.94-0.45-3.94-1.36-6c-0.9-2.06-2.22-3.95-3.93-5.66c-1.72-1.72-3.85-3.1-6.42-4.17
			c-2.56-1.06-5.52-1.59-8.9-1.59c-4.75,0-8.94,1-12.59,3c-3.66,2-6.51,4.75-8.57,8.24c-2.06,3.5-3.09,7.49-3.09,11.99
			c0,3.06,0.51,6.01,1.55,8.85c1.03,2.84,2.56,5.41,4.59,7.68c2.03,2.28,4.56,4.07,7.59,5.38c3.02,1.31,6.57,1.97,10.63,1.97
			c3.68,0,6.88-0.36,9.6-1.08c2.72-0.72,4.82-1.62,6.32-2.72c1.5-1.09,2.25-2.26,2.25-3.51c0-0.5-0.08-1.02-0.23-1.55
			C1013.39,169.36,1013.12,168.79,1012.75,168.16z M984.7,146.62c1.09-1.56,2.57-2.79,4.45-3.7c1.87-0.9,3.97-1.35,6.28-1.35
			c2,0,3.75,0.33,5.24,0.98c1.5,0.65,2.69,1.56,3.56,2.71c0.87,1.16,1.31,2.45,1.31,3.89c0,1.12-0.28,1.86-0.84,2.2
			c-0.56,0.34-1.38,0.52-2.44,0.52h-19.19C983.06,149.93,983.6,148.18,984.7,146.62z"/>
	</g>
	<g>
		<circle class="st1" cx="126.66" cy="124.89" r="120.54"/>
		<g>
			<path class="st0" d="M183.64,112.44c0.71,0,1.38,0,2.04,0c6.34,0,12.69-0.01,19.03,0c6.81,0.01,10.81,3.73,11.16,10.55
				c0.32,6.19-0.73,12.26-1.96,18.3c-2.35,11.52-5.27,22.87-10.07,33.65c-0.86,1.92-1.93,3.75-2.97,5.59
				c-3.47,6.15-9.59,8.35-15.77,10.41c-2.17,0.72-4.43,1.23-6.68,1.68c-1.2,0.24-1.75,0.67-1.93,1.99
				c-0.64,4.79-2.13,9.31-4.81,13.38c-4.79,7.28-11.84,11.28-20.09,13.1c-5.25,1.15-10.66,1.83-16.03,2.1
				c-10.68,0.53-21.39,0.67-31.94-1.66c-6.08-1.34-11.7-3.7-16.49-7.81c-6.01-5.16-9.3-11.83-10.14-19.54
				c-1.25-11.49-2.09-23.03-3.06-34.55c-1.09-12.95-2.14-25.9-3.21-38.85c-0.49-6.01-1.03-12.02-1.45-18.03
				c-0.44-6.41,3.63-10.73,10.02-10.73c31.47-0.01,62.94,0,94.41,0c6.53,0,10.06,3.22,10.35,9.8c0.13,2.9-0.27,5.83-0.42,8.74
				C183.62,111.11,183.64,111.65,183.64,112.44z M178.42,173.7c5.22-0.83,6.99-2.14,8.92-6.58c3.4-7.83,5.69-16,7.53-24.31
				c0.87-3.92,1.44-6.27-0.84-8.66c-3.65-3.82-7-3.27-12.09-3.27C180.76,145.23,179.59,159.44,178.42,173.7z"/>
			<path class="st2" d="M138.6,39.94c-0.26-7.7-5.86-13.67-13.64-13.67c-6.83,0-10.25,4.55-10.25,4.55s-3.42-4.55-10.25-4.55
				c-7.78,0-13.37,5.97-13.64,13.67c0-0.01-0.03,0.56-0.03,0.56c0,9.11,7.44,17.23,14.23,23.34c4.19,3.77,9.67,6.26,9.68,6.26h0
				c0,0,5.49-2.49,9.68-6.26c6.79-6.11,14.23-14.23,14.23-23.34C138.63,40.5,138.61,39.93,138.6,39.94z"/>
			<path class="st2" d="M162.52,65.98c-0.13-3.85-2.93-6.84-6.82-6.84c-3.42,0-5.12,2.28-5.12,2.28s-1.71-2.28-5.12-2.28
				c-3.89,0-6.69,2.99-6.82,6.84c0-0.01-0.01,0.28-0.01,0.28c0,4.55,3.72,8.61,7.12,11.67c2.09,1.89,4.84,3.13,4.84,3.13h0
				c0,0,2.74-1.24,4.84-3.13c3.39-3.06,7.12-7.12,7.12-11.67C162.53,66.26,162.52,65.97,162.52,65.98z"/>
		</g>
	</g>
</g>
</svg>
