<?xml version="1.0" encoding="utf-8"?>
<!-- Generator: Adobe Illustrator 24.0.1, SVG Export Plug-In . SVG Version: 6.00 Build 0)  -->
<svg version="1.1" id="Layer_1" xmlns="http://www.w3.org/2000/svg" xmlns:xlink="http://www.w3.org/1999/xlink" x="0px" y="0px"
	 viewBox="0 0 1024 290" style="enable-background:new 0 0 1024 290;" xml:space="preserve">
<style type="text/css">
	.st0{fill:#FF3366;}
	.st1{fill:#FFFFFF;}
	.st2{fill:#2B1204;}
	.st3{fill-rule:evenodd;clip-rule:evenodd;fill:#FFFFFF;}
</style>
<g>
	<path class="st0" d="M975.61,283.92H48.39C25.53,283.92,7,265.39,7,242.53V47.47C7,24.61,25.53,6.08,48.39,6.08h927.22
		c22.86,0,41.39,18.53,41.39,41.39v195.07C1017,265.39,998.47,283.92,975.61,283.92z"/>
	<g>
		<path class="st1" d="M328.96,118.79c-0.76-0.5-1.93-0.74-3.5-0.74c-1.05,0-1.9,0.06-2.54,0.17c-0.64,0.12-1.17,0.3-1.58,0.53
			c-0.41,0.23-0.82,0.59-1.23,1.05l-20.45,28.55l-20.36-28.46c-0.35-0.41-0.7-0.75-1.05-1.01c-0.35-0.26-0.83-0.47-1.45-0.62
			c-0.61-0.14-1.53-0.22-2.76-0.22c-1.64,0-2.83,0.25-3.59,0.74c-0.76,0.5-1.25,1.14-1.45,1.93c-0.21,0.79-0.31,1.65-0.31,2.59
			v50.54c0,0.99,0.1,1.9,0.31,2.71c0.2,0.82,0.69,1.46,1.45,1.93c0.75,0.46,1.89,0.7,3.41,0.7c1.64,0,2.83-0.23,3.59-0.7
			c0.75-0.47,1.24-1.11,1.44-1.93c0.21-0.81,0.31-1.66,0.31-2.54v-37.75l15.85,22.95c0.29,0.35,0.6,0.7,0.92,1.05
			c0.32,0.35,0.78,0.67,1.36,0.97c0.58,0.29,1.34,0.44,2.27,0.44c0.99,0,1.78-0.15,2.36-0.44c0.59-0.3,1.06-0.63,1.4-1.01
			s0.61-0.69,0.79-0.92l15.94-23.03v37.57c0,0.93,0.11,1.81,0.31,2.63c0.2,0.82,0.68,1.47,1.44,1.97c0.76,0.5,1.93,0.74,3.5,0.74
			c1.64,0,2.83-0.23,3.59-0.7c0.76-0.47,1.24-1.11,1.45-1.93c0.21-0.81,0.31-1.66,0.31-2.54v-50.54c0-0.99-0.1-1.89-0.31-2.71
			C330.2,119.95,329.72,119.29,328.96,118.79z"/>
		<path class="st1" d="M377.96,158.78c1.49-1.4,2.23-3.65,2.23-6.74c0-1.81-0.42-3.68-1.27-5.61c-0.84-1.93-2.07-3.69-3.68-5.3
			c-1.6-1.6-3.6-2.9-6-3.9c-2.4-0.99-5.17-1.49-8.32-1.49c-4.44,0-8.36,0.93-11.78,2.8c-3.42,1.87-6.09,4.44-8.01,7.71
			c-1.93,3.27-2.89,7.01-2.89,11.21c0,2.86,0.48,5.62,1.45,8.27c0.96,2.66,2.4,5.05,4.29,7.19c1.9,2.13,4.26,3.81,7.1,5.03
			c2.83,1.22,6.14,1.84,9.94,1.84c3.45,0,6.44-0.34,8.98-1.01c2.54-0.67,4.51-1.52,5.91-2.54c1.4-1.02,2.1-2.12,2.1-3.28
			c0-0.47-0.07-0.95-0.22-1.45c-0.15-0.5-0.4-1.03-0.74-1.62c-0.41-0.88-0.94-1.49-1.58-1.84c-0.64-0.35-1.29-0.5-1.93-0.44
			c-0.47,0.06-0.97,0.21-1.49,0.44c-0.52,0.24-1.09,0.5-1.7,0.79c-0.62,0.29-1.33,0.57-2.15,0.83c-0.82,0.26-1.79,0.49-2.93,0.66
			s-2.44,0.26-3.9,0.26c-1.93,0-3.81-0.4-5.65-1.18c-1.84-0.79-3.36-1.92-4.56-3.38c-1.2-1.46-1.83-3.18-1.88-5.17h23.12
			C374.61,160.88,376.47,160.18,377.96,158.78z M369.51,154.18c-0.53,0.32-1.29,0.49-2.28,0.49h-17.95c0-1.81,0.51-3.45,1.53-4.91
			c1.02-1.46,2.41-2.61,4.16-3.46c1.75-0.84,3.71-1.27,5.87-1.27c1.87,0,3.5,0.31,4.9,0.92c1.4,0.61,2.51,1.46,3.33,2.54
			c0.82,1.08,1.22,2.3,1.22,3.64C370.29,153.17,370.03,153.86,369.51,154.18z"/>
		<path class="st1" d="M447.68,123.31c-1.96-1.75-4.16-3.07-6.61-3.94s-4.97-1.31-7.53-1.31h-18.57c-1.64,0-2.83,0.25-3.59,0.74
			c-0.76,0.5-1.24,1.14-1.45,1.93c-0.21,0.79-0.31,1.65-0.31,2.59v50.54c0,0.93,0.08,1.83,0.26,2.67c0.17,0.85,0.64,1.5,1.4,1.97
			c0.76,0.46,1.96,0.7,3.59,0.7c1.69,0,2.9-0.23,3.64-0.7c0.73-0.47,1.19-1.11,1.4-1.93c0.21-0.81,0.31-1.69,0.31-2.63v-14.54h13.23
			c2.63,0,5.15-0.44,7.58-1.31c2.42-0.88,4.63-2.19,6.61-3.94c1.98-1.75,3.55-3.9,4.69-6.44c1.14-2.54,1.71-5.5,1.71-8.89
			c0-3.45-0.57-6.45-1.71-9.02C451.18,127.21,449.63,125.06,447.68,123.31z M442.11,144.28c-0.93,1.49-2.15,2.6-3.64,3.32
			c-1.49,0.73-3.14,1.1-4.95,1.1h-13.31v-20.06h13.23c2.04,0,3.81,0.41,5.3,1.22c1.49,0.82,2.66,1.97,3.5,3.46
			c0.84,1.49,1.27,3.26,1.27,5.3C443.52,140.91,443.05,142.79,442.11,144.28z"/>
		<path class="st1" d="M501.06,136.84c-0.7-0.5-1.87-0.75-3.5-0.75c-1.75,0-3.04,0.34-3.86,1.01c-0.82,0.68-1.22,1.65-1.22,2.93
			l0.52,2.54c-0.76-1.05-1.72-2.06-2.89-3.02c-1.17-0.96-2.59-1.76-4.25-2.41c-1.67-0.64-3.7-0.97-6.09-0.97
			c-2.69,0-5.24,0.57-7.67,1.71c-2.42,1.14-4.57,2.7-6.44,4.69c-1.87,1.98-3.34,4.25-4.42,6.79c-1.08,2.54-1.62,5.24-1.62,8.1
			c0,2.98,0.54,5.77,1.62,8.36c1.08,2.6,2.54,4.91,4.38,6.92c1.84,2.02,3.97,3.59,6.39,4.73c2.42,1.13,5.01,1.7,7.75,1.7
			c2.57,0,4.76-0.39,6.57-1.18c1.81-0.79,3.27-1.69,4.38-2.71c1.11-1.02,1.89-1.92,2.36-2.68l-0.61,2.89c0,1.11,0.41,1.99,1.22,2.63
			c0.82,0.64,2.07,0.97,3.77,0.97c1.64,0,2.82-0.24,3.55-0.7c0.73-0.46,1.18-1.11,1.36-1.93c0.17-0.82,0.26-1.72,0.26-2.72V141.7
			c0-1.05-0.08-2-0.26-2.85C502.2,138.01,501.76,137.33,501.06,136.84z M490.5,163.37c-0.96,1.73-2.23,3.08-3.81,4.07
			c-1.58,0.99-3.36,1.49-5.34,1.49c-2.16,0-4.1-0.5-5.83-1.49c-1.73-0.99-3.08-2.33-4.07-4.03c-0.99-1.69-1.49-3.59-1.49-5.69
			c0-2.16,0.48-4.1,1.45-5.83c0.96-1.73,2.29-3.1,3.98-4.12c1.69-1.02,3.62-1.53,5.78-1.53c1.99,0,3.78,0.48,5.39,1.45
			c1.61,0.96,2.91,2.29,3.9,3.98c0.99,1.69,1.49,3.68,1.49,5.96C491.95,159.74,491.47,161.65,490.5,163.37z"/>
		<path class="st1" d="M549.4,137.04c-0.7-0.44-1.84-0.65-3.41-0.65c-1.69,0-2.95,0.28-3.77,0.83c-0.82,0.55-1.28,1.5-1.4,2.84
			l0.01,2.27c-1.27-1.82-2.86-3.24-4.78-4.24c-1.96-1.02-4.25-1.54-6.88-1.54c-2.69,0-5.21,0.54-7.58,1.62
			c-2.36,1.08-4.44,2.59-6.22,4.51c-1.78,1.93-3.18,4.15-4.2,6.66c-1.02,2.51-1.54,5.22-1.54,8.14c0,2.98,0.51,5.74,1.54,8.28
			c1.02,2.54,2.42,4.78,4.2,6.7c1.78,1.93,3.86,3.41,6.22,4.46c2.36,1.06,4.92,1.58,7.66,1.58c3.5,0,6.39-0.84,8.67-2.54
			c1.13-0.84,2.11-1.86,2.97-3.06l0.01,3.4c0,1.75-0.26,3.33-0.79,4.73c-0.53,1.4-1.24,2.61-2.15,3.63c-0.91,1.02-2,1.8-3.28,2.32
			c-1.29,0.53-2.69,0.79-4.21,0.79c-1.81,0-3.3-0.24-4.47-0.7c-1.17-0.47-2.16-0.99-2.98-1.58c-0.82-0.59-1.54-1.11-2.15-1.58
			c-0.61-0.46-1.24-0.7-1.88-0.7c-0.76,0-1.36,0.17-1.79,0.52c-0.44,0.35-1.01,0.88-1.71,1.58c-0.52,0.58-0.92,1.17-1.18,1.75
			c-0.26,0.58-0.39,1.28-0.39,2.1s0.45,1.69,1.36,2.63c0.9,0.93,2.13,1.81,3.68,2.63c1.55,0.82,3.29,1.48,5.21,1.97
			c1.93,0.5,3.94,0.74,6.04,0.74c2.8,0,5.45-0.45,7.93-1.36c2.49-0.91,4.69-2.22,6.62-3.94c1.93-1.73,3.44-3.84,4.55-6.35
			c1.11-2.51,1.66-5.37,1.66-8.58v-35.47c0-0.93-0.08-1.8-0.26-2.59C550.54,138.09,550.1,137.47,549.4,137.04z M539.2,163.18
			c-0.91,1.69-2.14,3.02-3.68,3.99c-1.55,0.96-3.31,1.44-5.3,1.44c-1.98,0-3.75-0.48-5.3-1.44c-1.55-0.97-2.78-2.28-3.68-3.94
			c-0.91-1.67-1.36-3.58-1.36-5.74c0-2.16,0.44-4.06,1.31-5.69c0.88-1.63,2.09-2.93,3.64-3.89c1.55-0.97,3.31-1.45,5.3-1.45
			c1.99,0,3.77,0.47,5.34,1.4c1.58,0.94,2.82,2.24,3.73,3.9c0.9,1.66,1.36,3.58,1.36,5.74C540.56,159.59,540.11,161.49,539.2,163.18
			z"/>
		<path class="st1" d="M599.86,136.84c-0.7-0.5-1.87-0.75-3.5-0.75c-1.75,0-3.04,0.34-3.86,1.01c-0.82,0.68-1.22,1.65-1.22,2.93
			l0.52,2.54c-0.76-1.05-1.72-2.06-2.89-3.02c-1.17-0.96-2.59-1.76-4.25-2.41c-1.67-0.64-3.7-0.97-6.09-0.97
			c-2.69,0-5.24,0.57-7.67,1.71c-2.42,1.14-4.57,2.7-6.44,4.69c-1.87,1.98-3.34,4.25-4.42,6.79c-1.08,2.54-1.62,5.24-1.62,8.1
			c0,2.98,0.54,5.77,1.62,8.36c1.08,2.6,2.54,4.91,4.38,6.92c1.84,2.02,3.97,3.59,6.39,4.73c2.42,1.13,5.01,1.7,7.75,1.7
			c2.57,0,4.76-0.39,6.57-1.18c1.81-0.79,3.27-1.69,4.38-2.71c1.11-1.02,1.89-1.92,2.36-2.68l-0.61,2.89c0,1.11,0.41,1.99,1.22,2.63
			c0.82,0.64,2.07,0.97,3.77,0.97c1.64,0,2.82-0.24,3.55-0.7c0.73-0.46,1.18-1.11,1.36-1.93c0.17-0.82,0.26-1.72,0.26-2.72V141.7
			c0-1.05-0.08-2-0.26-2.85C600.99,138.01,600.55,137.33,599.86,136.84z M589.3,163.37c-0.96,1.73-2.23,3.08-3.81,4.07
			c-1.58,0.99-3.36,1.49-5.34,1.49c-2.16,0-4.1-0.5-5.83-1.49c-1.73-0.99-3.08-2.33-4.07-4.03c-0.99-1.69-1.49-3.59-1.49-5.69
			c0-2.16,0.48-4.1,1.45-5.83c0.96-1.73,2.29-3.1,3.98-4.12c1.69-1.02,3.62-1.53,5.78-1.53c1.99,0,3.78,0.48,5.39,1.45
			c1.61,0.96,2.91,2.29,3.9,3.98s1.49,3.68,1.49,5.96C590.74,159.74,590.26,161.65,589.3,163.37z"/>
		<path class="st1" d="M669.83,136.79c-0.7-0.46-1.87-0.7-3.5-0.7c-1.64,0-2.83,0.22-3.59,0.66c-0.76,0.44-1.22,1.05-1.4,1.84
			c-0.18,0.79-0.26,1.68-0.26,2.67v17.52c0,2.04-0.41,3.84-1.23,5.39c-0.82,1.55-1.97,2.74-3.46,3.59
			c-1.49,0.85-3.29,1.27-5.39,1.27c-2.05,0-3.77-0.42-5.17-1.27c-1.4-0.84-2.46-2.03-3.19-3.55c-0.73-1.52-1.1-3.33-1.1-5.43v-17.34
			c0-0.99-0.08-1.89-0.26-2.72c-0.17-0.81-0.63-1.46-1.36-1.93c-0.73-0.46-1.94-0.7-3.64-0.7c-1.58,0-2.74,0.24-3.5,0.7
			c-0.76,0.47-1.22,1.1-1.4,1.88c-0.18,0.79-0.26,1.68-0.26,2.67v17.43c0,3.03,0.46,5.81,1.4,8.32c0.93,2.51,2.25,4.67,3.94,6.48
			c1.69,1.81,3.67,3.2,5.91,4.16c2.25,0.96,4.71,1.44,7.4,1.44c1.64,0,3.12-0.23,4.47-0.7c1.34-0.47,2.53-1.07,3.55-1.8
			c1.02-0.73,1.88-1.46,2.59-2.19c0.7-0.73,1.22-1.36,1.58-1.88l-0.7,2.37c0,0.46,0.04,0.93,0.13,1.4c0.08,0.47,0.29,0.92,0.61,1.36
			c0.32,0.44,0.82,0.79,1.49,1.05c0.67,0.26,1.59,0.39,2.76,0.39c1.64,0,2.82-0.23,3.55-0.7c0.73-0.47,1.2-1.08,1.4-1.84
			c0.21-0.76,0.31-1.58,0.31-2.45v-32.85c0-0.93-0.1-1.8-0.31-2.63C670.98,137.9,670.53,137.26,669.83,136.79z"/>
		<path class="st1" d="M735.65,138.54c-2.31-1.69-5.15-2.54-8.54-2.54c-2.04,0-3.88,0.36-5.51,1.09c-1.64,0.73-3.07,1.73-4.29,2.98
			c-1.22,1.26-2.33,2.64-3.32,4.16c-0.94-1.75-2.03-3.24-3.29-4.46c-1.26-1.23-2.69-2.16-4.29-2.81c-1.61-0.64-3.37-0.96-5.3-0.96
			c-1.4,0-2.74,0.23-4.03,0.7c-1.29,0.46-2.44,1.08-3.46,1.84c-1.02,0.76-1.88,1.52-2.58,2.28c-0.7,0.76-1.2,1.46-1.49,2.1
			l0.79-2.45c0-1.51-0.4-2.63-1.18-3.32c-0.79-0.7-2.03-1.06-3.73-1.06c-1.64,0-2.83,0.24-3.59,0.7c-0.76,0.47-1.23,1.08-1.4,1.84
			c-0.17,0.76-0.26,1.6-0.26,2.54v32.76c0,0.94,0.09,1.82,0.26,2.63c0.17,0.82,0.63,1.46,1.36,1.93c0.73,0.46,1.88,0.7,3.46,0.7
			c1.69,0,2.9-0.22,3.64-0.65c0.73-0.44,1.2-1.07,1.4-1.88c0.21-0.82,0.31-1.69,0.31-2.63v-17.16c0-2.05,0.32-3.86,0.96-5.43
			c0.64-1.57,1.59-2.83,2.85-3.76c1.25-0.93,2.79-1.4,4.6-1.4c1.69,0,3.05,0.42,4.07,1.27c1.02,0.84,1.79,2.07,2.32,3.68
			c0.52,1.6,0.79,3.49,0.79,5.65v16.99c0,0.88,0.07,1.71,0.22,2.5c0.14,0.79,0.55,1.45,1.22,1.97c0.67,0.53,1.74,0.82,3.2,0.88
			c1.58,0.12,2.79-0.04,3.64-0.48c0.84-0.44,1.41-1.08,1.71-1.93c0.29-0.84,0.44-1.77,0.44-2.76v-17.08c0-2.27,0.35-4.21,1.05-5.78
			c0.7-1.58,1.68-2.79,2.93-3.64c1.26-0.85,2.76-1.27,4.51-1.27c1.63,0,2.96,0.44,3.98,1.31c1.02,0.88,1.79,2.1,2.32,3.68
			c0.52,1.58,0.79,3.45,0.79,5.61v16.99c0,0.99,0.09,1.88,0.26,2.67c0.17,0.79,0.64,1.43,1.4,1.93c0.75,0.5,1.95,0.74,3.59,0.74
			c1.64,0,2.82-0.23,3.55-0.7c0.73-0.47,1.2-1.1,1.4-1.88c0.21-0.79,0.31-1.68,0.31-2.68v-16.99c0-4.32-0.6-8.04-1.79-11.16
			C739.7,142.65,737.95,140.24,735.65,138.54z"/>
		<path class="st1" d="M788.81,133.42c1.9-1.72,4.04-3.02,6.44-3.89c2.4-0.88,4.85-1.31,7.36-1.31c2.1,0,3.89,0.2,5.38,0.61
			c1.49,0.41,2.69,0.86,3.59,1.36c0.9,0.5,1.54,0.86,1.88,1.09c0.82,0.53,1.5,0.97,2.06,1.31c0.55,0.35,1.15,0.53,1.79,0.53
			c0.7,0,1.4-0.23,2.11-0.7c0.7-0.46,1.4-1.19,2.1-2.19c0.41-0.58,0.73-1.15,0.97-1.7c0.23-0.55,0.32-1.18,0.26-1.88
			c-0.06-1.05-0.51-1.94-1.36-2.68c-0.84-0.73-1.74-1.38-2.67-1.97c-0.47-0.29-1.37-0.8-2.72-1.54c-1.34-0.73-3.09-1.41-5.26-2.06
			c-2.16-0.64-4.73-0.96-7.7-0.96c-2.92,0.06-5.86,0.51-8.81,1.36c-2.95,0.85-5.75,2.09-8.41,3.73c-2.66,1.63-5.02,3.68-7.1,6.13
			c-2.07,2.45-3.72,5.3-4.95,8.54c-1.22,3.24-1.84,6.88-1.84,10.91c0,4.08,0.61,7.81,1.84,11.16c1.23,3.36,2.88,6.31,4.95,8.85
			c2.07,2.54,4.45,4.67,7.14,6.39c2.69,1.73,5.49,3.01,8.41,3.86c2.92,0.84,5.81,1.27,8.67,1.27c3.03,0,5.64-0.31,7.79-0.92
			c2.16-0.61,3.9-1.28,5.21-2.02c1.31-0.73,2.21-1.24,2.67-1.53c0.93-0.53,1.83-1.16,2.68-1.88c0.84-0.73,1.3-1.62,1.36-2.67
			c0.06-0.64-0.03-1.26-0.26-1.84c-0.23-0.58-0.55-1.2-0.97-1.84c-0.64-1.05-1.3-1.8-1.97-2.27c-0.67-0.47-1.36-0.7-2.06-0.7
			c-0.64,0-1.26,0.17-1.84,0.53c-0.58,0.35-1.2,0.73-1.84,1.13c-0.53,0.3-1.3,0.72-2.32,1.27c-1.02,0.55-2.25,1.02-3.68,1.4
			c-1.44,0.38-3.14,0.57-5.12,0.57c-2.51,0-4.97-0.44-7.36-1.31s-4.54-2.17-6.44-3.9c-1.9-1.72-3.4-3.85-4.51-6.39
			c-1.11-2.54-1.66-5.45-1.66-8.71c0-3.27,0.55-6.18,1.66-8.72C785.4,137.28,786.91,135.15,788.81,133.42z"/>
		<path class="st1" d="M870.04,136.84c-0.7-0.5-1.87-0.75-3.5-0.75c-1.75,0-3.04,0.34-3.86,1.01c-0.82,0.68-1.22,1.65-1.22,2.93
			l0.52,2.54c-0.76-1.05-1.72-2.06-2.89-3.02c-1.17-0.96-2.59-1.76-4.25-2.41c-1.67-0.64-3.7-0.97-6.09-0.97
			c-2.69,0-5.24,0.57-7.67,1.71c-2.42,1.14-4.57,2.7-6.44,4.69c-1.87,1.98-3.34,4.25-4.42,6.79c-1.08,2.54-1.62,5.24-1.62,8.1
			c0,2.98,0.54,5.77,1.62,8.36c1.08,2.6,2.54,4.91,4.38,6.92c1.84,2.02,3.97,3.59,6.39,4.73c2.42,1.13,5.01,1.7,7.75,1.7
			c2.57,0,4.76-0.39,6.57-1.18c1.81-0.79,3.27-1.69,4.38-2.71c1.11-1.02,1.89-1.92,2.36-2.68l-0.61,2.89c0,1.11,0.41,1.99,1.22,2.63
			c0.82,0.64,2.07,0.97,3.77,0.97c1.64,0,2.82-0.24,3.55-0.7c0.73-0.46,1.18-1.11,1.36-1.93c0.17-0.82,0.26-1.72,0.26-2.72V141.7
			c0-1.05-0.08-2-0.26-2.85C871.18,138.01,870.74,137.33,870.04,136.84z M859.49,163.37c-0.96,1.73-2.23,3.08-3.81,4.07
			c-1.58,0.99-3.36,1.49-5.34,1.49c-2.16,0-4.1-0.5-5.83-1.49c-1.73-0.99-3.08-2.33-4.07-4.03c-0.99-1.69-1.49-3.59-1.49-5.69
			c0-2.16,0.48-4.1,1.45-5.83c0.96-1.73,2.29-3.1,3.98-4.12c1.69-1.02,3.62-1.53,5.78-1.53c1.99,0,3.78,0.48,5.39,1.45
			c1.61,0.96,2.91,2.29,3.9,3.98s1.49,3.68,1.49,5.96C860.93,159.74,860.45,161.65,859.49,163.37z"/>
		<path class="st1" d="M905.64,137.01c-0.79-0.21-1.68-0.31-2.67-0.31l-7.1,0.2v-5.72c0-0.99,0.1-1.81,0.31-2.45
			c0.21-0.64,0.53-1.11,0.97-1.4c0.44-0.3,1.02-0.49,1.75-0.57c0.73-0.09,1.59-0.13,2.59-0.13c0.99,0,1.89-0.09,2.71-0.26
			s1.48-0.64,1.97-1.4c0.5-0.75,0.74-1.93,0.74-3.5c0-1.69-0.25-2.89-0.74-3.59c-0.5-0.7-1.14-1.16-1.93-1.36
			c-0.79-0.2-1.68-0.31-2.68-0.31c-2.92,0-5.4,0.4-7.44,1.18c-2.04,0.79-3.71,1.86-4.99,3.2c-1.28,1.35-2.22,2.93-2.8,4.78
			c-0.59,1.84-0.88,3.84-0.88,6V137l-3.59-0.04c-1.4,0-2.44,0.4-3.11,1.19c-0.67,0.79-1.01,2.03-1.01,3.72
			c0,1.81,0.28,3.11,0.83,3.9c0.55,0.79,1.56,1.21,3.02,1.27l3.85-0.03v26.92c0,0.94,0.09,1.83,0.26,2.68
			c0.17,0.84,0.63,1.5,1.36,1.97c0.73,0.47,1.88,0.7,3.46,0.7c1.63,0,2.83-0.23,3.59-0.7c0.76-0.46,1.24-1.09,1.45-1.88
			c0.21-0.79,0.31-1.65,0.31-2.58v-27.08l7.18,0.11c0.99,0,1.87-0.1,2.63-0.31c0.76-0.21,1.37-0.69,1.84-1.45
			c0.46-0.76,0.7-1.89,0.7-3.41c0-1.64-0.24-2.82-0.7-3.55C907.06,137.68,906.44,137.22,905.64,137.01z"/>
		<path class="st1" d="M928.59,131.1c0.61,0.53,1.39,0.7,2.32,0.53l14.63-4.64c1.4-0.46,2.29-1.12,2.67-1.97
			c0.38-0.85,0.28-2.06-0.31-3.64c-0.35-1.35-0.83-2.29-1.45-2.85c-0.61-0.55-1.39-0.74-2.32-0.57l-14.72,4.64
			c-1.46,0.47-2.35,1.12-2.67,1.97c-0.32,0.84-0.22,2.08,0.31,3.72C927.47,129.64,927.98,130.58,928.59,131.1z"/>
		<path class="st1" d="M951.58,169.9c-0.41-0.88-0.94-1.49-1.58-1.84c-0.64-0.35-1.29-0.5-1.93-0.44c-0.47,0.06-0.97,0.21-1.49,0.44
			c-0.52,0.24-1.09,0.5-1.7,0.79c-0.62,0.29-1.33,0.57-2.15,0.83c-0.82,0.26-1.79,0.49-2.93,0.66c-1.14,0.17-2.44,0.26-3.9,0.26
			c-1.93,0-3.81-0.4-5.65-1.18c-1.84-0.79-3.36-1.92-4.56-3.38c-1.2-1.46-1.83-3.18-1.88-5.17h23.12c2.22,0,4.07-0.7,5.56-2.1
			c1.49-1.4,2.23-3.65,2.23-6.74c0-1.81-0.42-3.68-1.27-5.61c-0.84-1.93-2.07-3.69-3.68-5.3c-1.6-1.6-3.6-2.9-6-3.9
			c-2.4-0.99-5.17-1.49-8.32-1.49c-4.44,0-8.36,0.93-11.78,2.8c-3.42,1.87-6.09,4.44-8.01,7.71c-1.93,3.27-2.89,7.01-2.89,11.21
			c0,2.86,0.48,5.62,1.45,8.27c0.96,2.66,2.4,5.05,4.29,7.19c1.9,2.13,4.26,3.81,7.1,5.03c2.83,1.22,6.14,1.84,9.94,1.84
			c3.45,0,6.44-0.34,8.97-1.01c2.54-0.67,4.51-1.52,5.91-2.54c1.4-1.02,2.1-2.12,2.1-3.28c0-0.47-0.07-0.95-0.22-1.45
			C952.18,171.02,951.93,170.49,951.58,169.9z M925.35,149.76c1.02-1.46,2.41-2.61,4.16-3.46c1.75-0.84,3.71-1.27,5.87-1.27
			c1.87,0,3.5,0.31,4.9,0.92c1.4,0.61,2.51,1.46,3.33,2.54c0.82,1.08,1.22,2.3,1.22,3.64c0,1.05-0.26,1.74-0.79,2.06
			c-0.53,0.32-1.29,0.49-2.28,0.49h-17.95C923.82,152.85,924.33,151.22,925.35,149.76z"/>
	</g>
	<g>
		<path class="st2" d="M176.24,117.79c0.67,0,1.29,0,1.91,0c5.93,0,11.87-0.01,17.8,0c6.37,0.01,10.1,3.48,10.44,9.87
			c0.3,5.79-0.68,11.47-1.83,17.12c-2.2,10.77-4.93,21.39-9.42,31.47c-0.8,1.8-1.81,3.51-2.78,5.23c-3.25,5.75-8.97,7.81-14.74,9.73
			c-2.03,0.68-4.14,1.15-6.24,1.57c-1.13,0.23-1.64,0.63-1.8,1.86c-0.6,4.48-1.99,8.71-4.5,12.51
			c-4.48,6.81-11.08,10.55-18.79,12.25c-4.91,1.08-9.97,1.72-14.99,1.97c-9.99,0.5-20.01,0.62-29.87-1.55
			c-5.68-1.25-10.94-3.46-15.42-7.31c-5.62-4.83-8.7-11.07-9.48-18.28c-1.17-10.75-1.95-21.53-2.86-32.31
			c-1.02-12.11-2.01-24.22-3-36.33c-0.46-5.62-0.96-11.24-1.35-16.86c-0.41-5.99,3.39-10.03,9.37-10.03c29.43-0.01,58.86,0,88.29,0
			c6.11,0,9.4,3.01,9.68,9.16c0.12,2.71-0.25,5.45-0.39,8.18C176.21,116.54,176.24,117.06,176.24,117.79z M171.36,175.08
			c4.88-0.78,6.53-2,8.34-6.16c3.18-7.32,5.32-14.96,7.04-22.73c0.81-3.66,1.34-5.86-0.79-8.1c-3.41-3.58-6.54-3.06-11.3-3.06
			C173.55,148.46,172.45,161.75,171.36,175.08z"/>
		<path class="st3" d="M134.12,49.99c-0.25-7.2-5.48-12.78-12.75-12.78c-6.39,0-9.58,4.26-9.58,4.26s-3.19-4.26-9.58-4.26
			c-7.28,0-12.51,5.59-12.75,12.78c0-0.01-0.02,0.52-0.02,0.52c0,8.52,6.96,16.11,13.31,21.83c3.92,3.53,9.05,5.85,9.05,5.86h0
			c0,0,5.13-2.33,9.05-5.86c6.35-5.72,13.31-13.31,13.31-21.83C134.14,50.51,134.12,49.98,134.12,49.99z"/>
		<path class="st3" d="M156.49,74.34c-0.12-3.6-2.74-6.39-6.38-6.39c-3.19,0-4.79,2.13-4.79,2.13s-1.6-2.13-4.79-2.13
			c-3.64,0-6.25,2.79-6.38,6.39c0-0.01-0.01,0.26-0.01,0.26c0,4.26,3.48,8.05,6.65,10.91c1.96,1.76,4.52,2.93,4.52,2.93h0
			c0,0,2.57-1.16,4.52-2.93c3.17-2.86,6.65-6.65,6.65-10.91C156.5,74.6,156.49,74.34,156.49,74.34z"/>
	</g>
</g>
</svg>
